<svg xmlns="http://www.w3.org/2000/svg" width="1728" height="391" viewBox="0 0 1728 391" fill="none">
    <path opacity="0.2"
        d="M-2188.76 390.696L3917 390.697L3917 388.041L3846.6 388.041L3879.56 377.194L3917 377.194L3917 374.539L3887.7 374.539L3917 364.904L3917 360.049L3774.58 360.049L3811.45 347.305L3917 347.305L3917 344.498L3819.5 344.498L3859.71 330.54L3917 330.54L3917 327.658L3868.01 327.658L3911.95 312.486L3917 312.486L3917 307.858L3912.28 309.527L3755.29 309.527L3800.79 292.838L3917 292.838L3917 289.804L3809.17 289.804L3859.14 271.522L3917 271.522L3917 268.336L3867.76 268.336L3917 250.281L3917 244.895L3756.59 244.895L3814.13 222.593L3917 222.593L3917 219.179L3822.84 219.179L3886.64 194.373L3917 194.373L3917 190.808L3895.84 190.808L3917 182.615L3917 178.367L3885.26 190.808L3712.16 190.808L3779.14 163.119L3917 163.119L3917 159.326L3788.17 159.326L3863.29 128.3L3917 128.3L3917 124.355L3872.89 124.355L3916.35 106.376L3916.92 106.149L3916.92 101.066L3861.09 124.355L3678.79 124.355L3757.98 89.384L3917 89.384L3917 85.136L3767.66 85.1359L3857.59 45.4615L3917 45.4615L3917 40.91L3867.84 40.91L3916.43 19.4419L3917 19.2143L3917 13.1456L3854.74 40.91L3660.81 40.91L3756.59 -4.52965L3917 -4.52963L3917 -9.46042L3766.93 -9.46043L3877.45 -61.8792L3917 -61.8792L3917 -67.2652L3888.68 -67.2652L3916.43 -80.3888L3917 -80.6164L3917 -87.8989L3873.87 -67.1893L3664.79 -67.1893L3783.86 -128.18L3917 -128.18L3917 -134.097L3795.5 -134.097L3916.51 -195.998L3917 -196.302L3917 -204.949L3780.11 -134.021L3561.11 -134.021L3690.27 -205.936L3917 -205.936L3917 -212.611L3702.23 -212.611L3856.45 -298.484L3917 -298.484L3917 -306.07L3870.12 -306.07L3917 -332.165L3917 -342.558L3852.22 -306.07L3608.97 -306.07L3779.71 -410.149L3917 -410.149L3917 -419.1L3794.36 -419.1L3917 -493.897L3917 -506.414L3775.39 -419.1L3515.54 -419.1L3706.71 -547.909L3917 -547.909L3917 -558.529L3722.41 -558.529L3916.59 -689.234L3917 -689.538L3917 -704.786L3702.31 -558.453L3421.95 -558.453L3638.91 -721.778L3917 -721.778L3917 -734.826L3656.17 -734.826L3916.59 -930.846L3917 -931.149L3917 -964.982L3598.06 -964.982L3704.02 -1055.33L3705.97 -1057L3680.91 -1057L3574.38 -964.982L3234.28 -964.982L3327.87 -1057L3304.59 -1057L3212.31 -964.982L2870.58 -964.982L2949.76 -1057L2928.03 -1057L2850.07 -964.982L2506.96 -964.982L2571.82 -1057L2551.56 -1057L2487.83 -964.982L2143.42 -964.982L2193.96 -1057L2174.92 -1057L2125.44 -964.982L1779.97 -964.982L1816.18 -1057L1798.11 -1057L1762.87 -964.982L1416.67 -964.982L1438.32 -1055.86L1438.56 -1057L1421.23 -1057L1400.23 -964.982L1053.54 -964.982L1061.11 -1056.01L1061.11 -1057L1044.18 -1057L1037.51 -964.982L690.654 -964.982L683.981 -1057L666.972 -1057L674.622 -964.982L327.931 -964.982L307.178 -1056.24L307.015 -1057L289.681 -1057L311.573 -964.982L-34.6305 -964.983L-69.6249 -1056.39L-69.8693 -1057L-87.9362 -1057L-51.7208 -964.983L-397.191 -964.983L-446.428 -1056.47L-446.672 -1057L-465.716 -1057L-415.177 -964.983L-759.59 -964.983L-823.068 -1056.54L-823.394 -1057L-843.658 -1057L-778.796 -964.983L-1121.91 -964.983L-1199.63 -1056.62L-1199.95 -1057L-1221.68 -1057L-1142.5 -964.983L-1484.22 -964.983L-1576.19 -1056.7L-1576.51 -1057L-1599.87 -1057L-1506.28 -964.983L-1846.38 -964.983L-1952.58 -1056.77L-1952.91 -1057L-1977.97 -1057L-1870.06 -964.983L-2189 -964.983L-2189 -931.15L-1928.17 -734.826L-2189 -734.826L-2189 -721.778L-1910.91 -721.778L-1693.95 -558.454L-1974.31 -558.454L-2187.37 -703.724L-2189 -704.862L-2189 -689.614L-1994.41 -558.53L-2189 -558.53L-2189 -547.909L-1978.71 -547.909L-1787.54 -419.1L-2047.39 -419.1L-2187.37 -505.428L-2188.92 -506.414L-2188.92 -493.898L-2066.27 -419.1L-2188.92 -419.1L-2188.92 -410.149L-2051.63 -410.149L-1880.88 -306.07L-2124.14 -306.07L-2188.92 -342.559L-2188.92 -332.166L-2142.04 -306.07L-2188.92 -306.07L-2188.92 -298.484L-2128.37 -298.484L-1974.15 -212.612L-2188.84 -212.612L-2188.84 -205.936L-1962.1 -205.936L-1832.95 -134.022L-2051.95 -134.022L-2187.29 -204.116L-2188.84 -204.874L-2188.84 -196.226L-2067.33 -134.022L-2188.84 -134.022L-2188.84 -128.105L-2055.78 -128.105L-1936.71 -67.1139L-2145.79 -67.114L-2188.84 -87.7477L-2188.84 -80.4651L-2160.6 -67.0382L-2188.84 -67.0382L-2188.84 -61.6521L-2149.29 -61.6521L-2038.77 -9.2334L-2188.84 -9.23341L-2188.84 -4.3026L-2028.43 -4.30258L-1932.64 41.1371L-2126.58 41.1371L-2188.84 13.3726L-2188.84 19.4414L-2139.68 41.1371L-2188.84 41.1371L-2188.84 45.6886L-2129.43 45.6886L-2039.5 85.363L-2188.84 85.363L-2188.84 89.6111L-2029.9 89.6111L-1950.71 124.582L-2133.01 124.582L-2188.84 101.293L-2188.84 106.376L-2144.73 124.582L-2188.84 124.582L-2188.84 128.527L-2135.21 128.527L-2060.09 159.553L-2188.84 159.553L-2188.84 163.346L-2050.97 163.346L-1984 191.035L-2157.1 191.035L-2188.76 178.594L-2188.76 182.842L-2167.68 191.035L-2188.76 191.035L-2188.76 194.6L-2158.48 194.6L-2094.68 219.406L-2188.84 219.406L-2188.84 222.82L-2085.97 222.82L-2028.43 245.122L-2188.84 245.122L-2188.84 250.584L-2139.6 268.639L-2188.84 268.639L-2188.84 271.825L-2130.97 271.825L-2081 290.107L-2188.84 290.107L-2188.84 293.141L-2072.7 293.141L-2027.21 309.83L-2184.2 309.83L-2188.84 308.237L-2188.84 312.789L-2183.79 312.789L-2139.84 327.961L-2188.76 327.961L-2188.76 330.843L-2131.54 330.843L-2091.34 344.801L-2188.76 344.801L-2188.76 347.608L-2083.2 347.608L-2046.34 360.352L-2188.76 360.352L-2188.76 365.207L-2159.54 374.841L-2188.76 374.841L-2188.76 377.497L-2151.4 377.497L-2118.44 388.344L-2188.76 388.344L-2188.76 390.999L-2188.76 390.696ZM1866.72 377.269L1855.9 388.117L1705.83 388.117L1715.1 377.269L1866.72 377.269ZM1712.34 377.269L1703.14 388.117L1552.91 388.117L1560.56 377.269L1712.34 377.269ZM1557.95 377.269L1550.47 388.117L1400.07 388.117L1406.01 377.269L1557.95 377.269ZM1403.57 377.269L1397.71 388.117L1247.15 388.117L1251.38 377.269L1403.49 377.269L1403.57 377.269ZM1249.19 377.269L1245.03 388.117L1094.4 388.117L1097 377.269L1249.19 377.269ZM1094.72 377.269L1092.28 388.117L941.558 388.117L942.453 377.269L1094.72 377.269ZM786.686 388.117L635.965 388.117L633.523 377.269L785.791 377.269L786.686 388.117ZM3552 -9.30881L3654.3 -61.7274L3862.72 -61.7274L3753.42 -9.30879L3552 -9.30881ZM941.314 362.856L940.5 374.614L787.825 374.614L786.93 362.856L941.314 362.856ZM-1830.35 89.5352L-1756.61 124.506L-1939.56 124.506L-2017.93 89.5352L-1830.35 89.5352ZM-1814.23 -4.3784L-1725.52 41.0612L-1920.19 41.0612L-2014.92 -4.37842L-1814.15 -4.3784L-1814.23 -4.3784ZM-1584.73 -721.703L-1393.24 -558.378L-1674.98 -558.378L-1889.27 -721.703L-1584.81 -721.703L-1584.73 -721.703ZM1020.83 -734.75L707.338 -734.75L691.875 -948.218L1036.37 -948.218L1020.91 -734.75L1020.83 -734.75ZM3121.4 -558.377L3312.89 -721.702L3617.43 -721.702L3403.15 -558.377L3121.4 -558.377ZM3326.73 -133.945L3444.65 -205.86L3674.32 -205.86L3546.63 -133.945L3326.73 -133.945ZM3599.61 159.554L3669.84 128.527L3851.65 128.527L3777.35 159.554L3599.61 159.554ZM-1375.82 -558.378L-1564.79 -721.703L-1258.87 -721.703L-1092.85 -558.378L-1375.82 -558.378ZM-1076.58 -558.378L-1240.32 -721.703L-933.017 -721.703L-792.387 -558.378L-1076.49 -558.378L-1076.58 -558.378ZM-777.331 -558.378L-915.764 -721.703L-607.241 -721.703L-492.084 -558.378L-777.249 -558.378L-777.331 -558.378ZM-478.004 -558.378L-591.127 -721.703L-281.547 -721.703L-191.781 -558.378L-477.924 -558.378L-478.004 -558.378ZM-178.597 -558.378L-266.409 -721.703L43.9857 -721.702L108.278 -558.378L-178.597 -558.378ZM120.892 -558.378L58.3902 -721.702L369.436 -721.702L408.337 -558.378L120.892 -558.378ZM420.463 -558.378L383.271 -721.702L694.724 -721.702L708.233 -558.378L420.382 -558.378L420.463 -558.378ZM2520.71 -558.378L2661.26 -721.702L2968.56 -721.702L2804.82 -558.377L2520.71 -558.378ZM2821.1 -558.377L2987.12 -721.702L3293.04 -721.702L3104.07 -558.377L2821.1 -558.377ZM3337.15 -9.23293L3431.31 -61.6516L3640.54 -61.6516L3539.38 -9.23291L3337.23 -9.23293L3337.15 -9.23293ZM3556.15 85.3635L3367.34 85.3634L3444.9 45.689L3639 45.6891L3556.15 85.3635ZM3484.86 124.583L3558.59 89.6116L3746.18 89.6116L3667.81 124.583L3484.86 124.583ZM-1630.79 89.6111L-1562.51 124.582L-1746.03 124.582L-1818.95 89.6111L-1630.71 89.6111L-1630.79 89.6111ZM-1380.79 -547.757L-1229.82 -418.949L-1492.12 -418.949L-1661.07 -547.757L-1380.87 -547.757L-1380.79 -547.757ZM1019.93 -721.626L1008.05 -558.302L720.115 -558.302L708.315 -721.627L1019.93 -721.626ZM3092.43 -133.945L3199.12 -205.86L3429.76 -205.86L3313.14 -133.945L3092.35 -133.945L3092.43 -133.945ZM3246.65 41.1375L3328.28 -4.30211L3529.78 -4.3021L3442.05 41.1376L3246.65 41.1375ZM452.202 -418.949L422.905 -547.757L709.21 -547.757L719.871 -418.949L452.202 -418.949ZM2122.1 -418.948L2212.92 -547.757L2496.62 -547.757L2387.49 -418.948L2122.18 -418.948L2122.1 -418.948ZM2400.75 -418.948L2511.6 -547.757L2794.24 -547.757L2665.17 -418.948L2400.75 -418.948ZM3195.05 -212.46L2962.54 -212.46L3076.56 -298.332L3320.95 -298.332L3195.05 -212.46ZM3122.21 -9.15711L3208.15 -61.5758L3418.2 -61.5758L3325.1 -9.1571L3122.13 -9.15711L3122.21 -9.15711ZM3290.76 124.658L3359.04 89.6874L3547.28 89.6874L3474.36 124.658L3290.76 124.658ZM3580.97 163.423L3518.96 191.111L3344.8 191.111L3403.15 163.422L3580.97 163.423ZM-1510.27 45.7645L-1438.97 85.4389L-1628.43 85.4388L-1705.1 45.7645L-1510.27 45.7645ZM-1083.66 -305.843L-1204.1 -409.921L-941.969 -409.921L-836.171 -305.843L-1083.66 -305.843ZM-823.475 -305.843L-927.809 -409.921L-664.697 -409.921L-575.094 -305.843L-823.475 -305.843ZM-563.294 -305.843L-651.513 -409.921L-387.425 -409.921L-314.018 -305.843L-563.213 -305.843L-563.294 -305.843ZM-303.031 -305.843L-375.137 -409.921L-110.235 -409.921L-53.0229 -305.843L-302.95 -305.843L-303.031 -305.843ZM-42.7687 -305.843L-98.7602 -409.921L166.792 -409.921L207.809 -305.842L-42.7687 -305.843ZM217.575 -305.842L177.698 -409.921L443.739 -409.921L468.56 -305.842L217.575 -305.842ZM1007.4 -547.606L998.038 -418.797L730.288 -418.797L720.929 -547.606L1007.32 -547.606L1007.4 -547.606ZM2858.21 -133.794L2953.75 -205.708L3185.37 -205.708L3079.9 -133.794L2858.21 -133.794ZM3039.69 41.2893L3114.24 -4.15037L3316.48 -4.15035L3235.74 41.2893L3039.69 41.2893ZM478.001 -305.767L454.318 -409.845L720.685 -409.845L729.311 -305.767L478.001 -305.767ZM1520.6 -305.766L1561.61 -409.845L1827.17 -409.845L1771.18 -305.766L1520.6 -305.766ZM2042.43 -305.766L2115.83 -409.845L2379.92 -409.845L2291.7 -305.766L2042.51 -305.766L2042.43 -305.766ZM2907.36 -9.00537L2985.17 -61.4241L3196.03 -61.424L3111.06 -9.00535L2907.36 -9.00537ZM3096.82 124.81L3159.65 89.8391L3348.54 89.8391L3280.99 124.81L3096.82 124.81ZM3393.63 163.574L3335.93 191.263L3161.2 191.263L3215.23 163.574L3393.63 163.574ZM253.384 -212.232L220.505 -298.105L470.432 -298.105L490.859 -212.232L253.384 -212.232ZM997.468 -409.769L989.899 -305.691L738.508 -305.691L730.939 -409.77L997.387 -409.769L997.468 -409.769ZM2223.01 -212.232L2296.91 -298.105L2544.23 -298.105L2458.21 -212.232L2223.01 -212.232ZM2469.52 -212.232L2556.77 -298.105L2803.19 -298.105L2703.82 -212.232L2469.52 -212.232ZM2623.91 -133.642L2708.22 -205.557L2940.73 -205.556L2846.41 -133.642L2623.91 -133.642ZM2832.65 41.4409L2900.12 -3.99865L3103.17 -3.99864L3029.52 41.4409L2832.74 41.4409L2832.65 41.4409ZM-1231.77 89.9146L-1174.4 124.886L-1359.14 124.886L-1421.23 89.9145L-1231.69 89.9146L-1231.77 89.9146ZM-1118 -133.642L-1212.32 -205.557L-979.812 -205.557L-895.499 -133.642L-1118 -133.642ZM-884.513 -133.642L-967.686 -205.557L-734.28 -205.557L-661.198 -133.642L-884.513 -133.642ZM-651.025 -133.642L-723.13 -205.557L-488.91 -205.557L-426.978 -133.642L-651.025 -133.642ZM-417.456 -133.642L-478.412 -205.557L-243.459 -205.557L-192.757 -133.642L-417.456 -133.642ZM-183.887 -133.642L-233.693 -205.557L1.91045 -205.557L41.3814 -133.642L-183.887 -133.642ZM49.7635 -133.642L11.1067 -205.557L247.199 -205.557L275.52 -133.642L49.7635 -133.642ZM499.323 -212.232L479.791 -298.105L729.962 -298.105L737.043 -212.232L499.323 -212.232ZM1483.89 -212.232L1517.67 -298.105L1767.11 -298.105L1720.96 -212.232L1483.89 -212.232ZM1976.59 -212.232L2037.14 -298.105L2285.27 -298.105L2212.52 -212.232L1976.59 -212.232ZM2389.69 -133.642L2462.77 -205.557L2696.17 -205.557L2613 -133.642L2389.69 -133.642ZM2692.59 -8.92958L2762.18 -61.3483L2973.85 -61.3483L2896.95 -8.92956L2692.51 -8.92958L2692.59 -8.92958ZM2902.89 124.886L2960.26 89.9149L3149.8 89.9149L3087.71 124.886L2902.97 124.886L2902.89 124.886ZM3206.28 163.65L3152.9 191.339L2977.68 191.339L3027.4 163.65L3206.36 163.65L3206.28 163.65ZM283.496 -133.642L255.988 -205.557L492.487 -205.557L509.659 -133.642L283.496 -133.642ZM989.411 -298.029L983.226 -212.156L745.425 -212.156L739.24 -298.029L989.492 -298.029L989.411 -298.029ZM1687.11 -133.642L1726.58 -205.557L1962.18 -205.557L1912.38 -133.642L1687.11 -133.642ZM2155.47 -133.642L2217.4 -205.557L2451.62 -205.557L2379.51 -133.642L2155.47 -133.642ZM2625.7 41.4409L2686.08 -3.99867L2889.78 -3.99866L2823.13 41.4409L2625.7 41.4409ZM-1097.49 45.9922L-1038.57 85.6665L-1229.25 85.6665L-1293.62 45.9922L-1097.49 45.9922ZM85.8162 -66.6587L53.0188 -127.649L277.961 -127.649L301.969 -66.6586L85.8162 -66.6587ZM517.227 -133.642L500.869 -205.557L737.612 -205.557L743.554 -133.642L517.227 -133.642ZM1452.97 -133.642L1481.29 -205.557L1717.38 -205.557L1678.72 -133.642L1452.97 -133.642ZM2321.65 -66.6585L2383.66 -127.649L2606.08 -127.649L2535.52 -66.6584L2321.65 -66.6585ZM2477.74 -8.85367L2539.19 -61.2724L2751.6 -61.2723L2682.83 -8.85365L2477.74 -8.85367ZM2708.87 124.962L2760.79 89.9908L2950.9 89.9909L2894.18 124.962L2708.87 124.962ZM3018.86 163.726L2969.7 191.414L2794 191.414L2839.41 163.726L3018.86 163.726ZM-954.176 -8.85397L-1022.94 -61.2727L-810.536 -61.2727L-749.091 -8.85395L-954.176 -8.85397ZM-739.976 -8.85395L-800.607 -61.2727L-587.465 -61.2726L-534.159 -8.85394L-739.894 -8.85395L-739.976 -8.85395ZM-525.776 -8.85393L-578.35 -61.2726L-364.557 -61.2726L-319.471 -8.85392L-525.858 -8.85393L-525.776 -8.85393ZM-311.577 -8.85392L-356.012 -61.2726L-141.649 -61.2726L-104.701 -8.8539L-311.577 -8.85392ZM-97.2954 -8.8539L-133.592 -61.2726L81.3404 -61.2726L110.15 -8.85388L-97.2138 -8.8539L-97.2954 -8.8539ZM309.213 -66.6586L285.856 -127.649L511.124 -127.649L525.691 -66.6586L309.213 -66.6586ZM982.819 -205.481L977.611 -133.566L751.203 -133.566L745.995 -205.481L982.819 -205.481ZM1650.4 -66.6585L1683.93 -127.649L1908.39 -127.649L1866.15 -66.6585L1650.48 -66.6585L1650.4 -66.6585ZM2097.93 -66.6585L2150.42 -127.649L2373.57 -127.649L2312.37 -66.6585L2097.85 -66.6585L2097.93 -66.6585ZM2418.82 41.4408L2472.13 -3.99869L2676.56 -3.99867L2616.91 41.4409L2418.82 41.4408ZM-834.462 223.047L-801.339 245.35L-970.127 245.35L-1006.34 223.047L-834.462 223.047ZM116.986 -8.92981L88.8274 -61.3485L304.167 -61.3485L324.838 -8.92979L117.067 -8.92981L116.986 -8.92981ZM532.609 -66.7344L518.692 -127.725L744.204 -127.725L749.25 -66.7344L532.609 -66.7344ZM1426.68 -66.7343L1450.69 -127.725L1675.63 -127.725L1642.84 -66.7343L1426.68 -66.7343ZM1833.35 -8.92966L1870.3 -61.3484L2084.66 -61.3483L2040.23 -8.92964L1833.27 -8.92966L1833.35 -8.92966ZM2514.85 124.886L2561.32 89.9149L2752.08 89.9149L2700.81 124.886L2514.93 124.886L2514.85 124.886ZM2831.35 163.65L2786.51 191.339L2610.32 191.339L2651.33 163.65L2831.35 163.65ZM-974.359 128.906L-928.297 159.933L-1108.8 159.933L-1159.1 128.906L-974.278 128.906L-974.359 128.906ZM-62.4636 41.4406L-93.9585 -3.99892L112.754 -3.9989L137.739 41.4406L-62.4636 41.4406ZM331.267 -8.92979L311.247 -61.3485L526.912 -61.3485L539.364 -8.92977L331.267 -8.92979ZM977.122 -127.725L972.728 -66.7344L756.005 -66.7344L751.61 -127.725L977.204 -127.725L977.122 -127.725ZM1618.58 -8.92967L1647.39 -61.3484L1862.32 -61.3484L1826.03 -8.92966L1618.66 -8.92967L1618.58 -8.92967ZM-830.149 85.6665L-882.234 45.9922L-684.799 45.9922L-638.248 85.6665L-830.149 85.6665ZM-630.598 85.6665L-676.579 45.9922L-478.574 45.9922L-438.208 85.6665L-630.679 85.6665L-630.598 85.6665ZM-431.047 85.6665L-470.843 45.9922L-272.269 45.9922L-238.088 85.6665L-431.047 85.6665ZM-231.496 85.6665L-265.188 45.9922L-66.1255 45.9923L-38.1296 85.6666L-231.577 85.6665L-231.496 85.6665ZM143.924 41.4406L119.509 -3.9989L326.628 -3.99888L344.533 41.4407L144.005 41.4406L143.924 41.4406ZM545.63 -8.92977L533.667 -61.3485L749.575 -61.3485L753.889 -8.92975L545.63 -8.92977ZM1403.81 -8.92969L1424.48 -61.3484L1639.82 -61.3484L1611.67 -8.92968L1403.89 -8.92969L1403.81 -8.92969ZM1797.79 41.4408L1829.85 -3.99875L2036.08 -3.99873L1997.58 41.4408L1797.87 41.4408L1797.79 41.4408ZM2320.84 124.886L2361.85 89.9149L2553.18 89.9149L2507.28 124.886L2320.84 124.886ZM2643.93 163.65L2603.32 191.339L2426.63 191.339L2463.42 163.65L2643.93 163.65ZM-780.994 128.906L-739.814 159.933L-920.891 159.933L-966.384 128.906L-781.075 128.906L-780.994 128.906ZM-778.714 124.962L-824.615 89.9905L-633.283 89.9905L-592.267 124.962L-778.714 124.962ZM-31.8633 85.7424L-59.3711 46.0681L140.18 46.0681L161.991 85.7424L-31.8633 85.7424ZM350.555 41.5166L333.139 -3.92307L540.503 -3.92306L551.327 41.5166L350.474 41.5166L350.555 41.5166ZM972.321 -61.1967L968.496 -8.778L760.155 -8.77802L756.331 -61.1967L972.24 -61.1967L972.321 -61.1967ZM1590.99 41.5167L1615.98 -3.92296L1822.69 -3.92294L1791.2 41.5168L1590.99 41.5167ZM1966.74 85.7426L2000.92 46.0683L2199.49 46.0683L2159.7 85.7426L1966.74 85.7426ZM2461.47 159.933L2279.9 159.933L2316.28 128.906L2502.16 128.906L2461.47 159.933ZM1143.71 163.726L1137.45 191.414L958.16 191.414L960.439 163.726L1143.71 163.726ZM1151.61 128.982L1144.53 160.009L960.683 160.009L963.287 128.982L1151.61 128.982ZM958.567 128.982L956.288 160.009L772.444 160.009L770.165 128.982L958.567 128.982ZM770.654 191.414L591.367 191.414L585.101 163.726L768.375 163.726L770.654 191.414ZM-198.129 125.037L-227.752 90.0664L-34.9558 90.0664L-10.2971 125.037L-198.129 125.037ZM167.85 85.8183L146.528 46.144L346.405 46.1441L362.03 85.8183L167.85 85.8183ZM557.186 41.5924L546.851 -3.84722L754.459 -3.8472L758.202 41.5925L557.186 41.5924ZM1384.12 41.5925L1402.02 -3.84714L1609.14 -3.84713L1584.73 41.5925L1384.2 41.5925L1384.12 41.5925ZM1766.7 85.8184L1794.7 46.1442L1993.76 46.1442L1960.07 85.8185L1766.62 85.8184L1766.7 85.8184ZM1537.69 128.982L1521 160.009L1337.49 160.009L1349.69 128.982L1537.69 128.982ZM765.445 128.982L768.05 160.009L584.206 160.009L577.125 128.982L765.445 128.982ZM572.242 128.982L579.648 160.009L395.967 160.009L384.085 128.982L572.242 128.982ZM379.039 128.982L391.246 160.009L207.728 160.009L191.045 128.982L379.039 128.982ZM367.564 85.8183L352.345 46.1441L552.466 46.1441L561.907 85.8183L367.483 85.8183L367.564 85.8183ZM170.21 90.0664L363.739 90.0665L377.493 125.038L188.928 125.037L170.129 90.0664L170.21 90.0664ZM968.252 -3.84718L964.915 41.5925L763.899 41.5925L760.644 -3.8472L968.252 -3.84718ZM1566.74 85.8184L1588.55 46.1442L1788.1 46.1442L1760.6 85.8184L1566.74 85.8184ZM1933.05 125.038L1963.16 90.0666L2155.55 90.0666L2120.47 125.038L1933.05 125.038ZM2273.47 160.009L2091.42 160.009L2122.99 128.982L2309.36 128.982L2273.47 160.009ZM2269.16 163.802L2237.17 191.49L2059.6 191.49L2087.76 163.802L2269.24 163.802L2269.16 163.802ZM2081.65 163.802L2053.9 191.49L1875.92 191.49L1899.76 163.802L2081.65 163.802ZM1894.15 163.802L1870.71 191.49L1692.32 191.49L1711.85 163.802L1894.15 163.802ZM1730.73 129.058L1709.24 160.085L1526.05 160.085L1543.06 129.058L1730.73 129.058ZM1545.26 125.113L1564.46 90.1424L1757.67 90.1424L1733.41 125.113L1545.18 125.113L1545.26 125.113ZM1736.34 129.058L1923.61 129.058L1897.32 160.085L1714.45 160.085L1736.34 129.058ZM1739.11 125.113L1763.77 90.1424L1956.57 90.1424L1926.94 125.113L1739.11 125.113ZM2116.48 129.058L2085.4 160.085L1902.93 160.085L1929.63 129.058L2116.48 129.058ZM1366.78 85.8942L1382.41 46.2199L1582.29 46.2199L1560.96 85.8943L1366.78 85.8942ZM1558.68 90.1424L1539.89 125.113L1351.32 125.113L1365.07 90.1424L1558.68 90.1424ZM1166.83 85.8942L1176.27 46.2199L1376.39 46.2199L1361.17 85.8942L1166.74 85.8942L1166.83 85.8942ZM1165.85 90.1423L1359.62 90.1424L1346.28 125.113L1157.55 125.113L1165.85 90.1423ZM1170.57 46.2199L1161.54 85.8942L966.949 85.8942L970.205 46.2199L1170.57 46.2199ZM964.671 46.2199L961.822 85.8942L767.154 85.8942L764.306 46.2199L964.671 46.2199ZM762.271 90.1423L765.201 125.113L576.312 125.113L568.336 90.1423L762.271 90.1423ZM571.428 125.113L382.701 125.113L369.355 90.1423L563.127 90.1423L571.428 125.113ZM567.359 85.8942L558.326 46.2199L758.69 46.2199L761.946 85.8942L567.359 85.8942ZM1160.56 90.1423L1152.58 125.113L963.694 125.113L966.624 90.1423L1160.56 90.1423ZM1523.93 163.877L1706.56 163.877L1687.35 191.566L1508.63 191.566L1523.85 163.877L1523.93 163.877ZM1177.41 41.6683L1188.23 -3.77123L1395.59 -3.77122L1378.18 41.6684L1177.32 41.6683L1177.41 41.6683ZM970.612 41.6683L974.356 -3.77125L1181.96 -3.77124L1171.63 41.6683L970.612 41.6683ZM14.4434 160.16L-168.424 160.16L-194.711 129.134L-7.44846 129.134L14.4434 160.16ZM17.0479 163.953L36.5799 191.642L-141.812 191.642L-165.25 163.953L17.0479 163.953ZM185.836 129.21L202.845 160.236L19.6519 160.236L-1.83323 129.21L185.836 129.21ZM-4.51853 125.265L-28.7707 90.294L164.432 90.294L183.639 125.265L-4.60007 125.265L-4.51853 125.265ZM-170.784 164.029L-146.939 191.718L-324.923 191.718L-352.675 164.029L-170.784 164.029ZM-387.588 129.286L-200.733 129.286L-174.04 160.312L-356.5 160.312L-387.588 129.286ZM-358.697 164.029L-330.539 191.718L-508.116 191.718L-540.1 164.029L-358.616 164.029L-358.697 164.029ZM-580.466 129.286L-394.099 129.286L-362.522 160.312L-544.576 160.312L-580.466 129.286ZM-551.087 160.312L-732.652 160.312L-773.344 129.286L-587.465 129.286L-551.087 160.312ZM-546.692 164.105L-514.22 191.794L-691.391 191.793L-727.687 164.105L-546.692 164.105ZM204.961 164.105L220.18 191.794L41.4629 191.794L22.2561 164.105L204.88 164.105L204.961 164.105ZM392.793 164.105L403.698 191.794L224.737 191.794L209.844 164.105L392.793 164.105ZM580.625 164.105L587.217 191.794L408.093 191.794L397.513 164.105L580.625 164.105ZM961.497 90.3699L958.974 125.341L770.003 125.341L767.48 90.3698L961.497 90.3699ZM1344.73 129.286L1332.85 160.312L1149.17 160.312L1156.57 129.286L1344.73 129.286ZM1148.27 164.029L1331.38 164.029L1320.8 191.718L1141.68 191.718L1148.27 164.029ZM1336.1 164.029L1519.05 164.029L1504.16 191.718L1325.2 191.718L1336.1 164.029ZM1689.79 195.283L1867.7 195.283L1846.7 220.089L1672.38 220.089L1689.87 195.283L1689.79 195.283ZM1872.82 195.283L2050.32 195.283L2025.5 220.089L1851.5 220.089L1872.82 195.283ZM2055.85 195.283L2232.94 195.283L2204.3 220.089L2030.71 220.089L2055.85 195.283ZM2415.57 195.283L2383.01 220.089L2209.83 220.089L2238.88 195.283L2415.57 195.283ZM2243.12 191.718L2275.59 164.029L2456.58 164.029L2420.29 191.718L2243.12 191.718ZM2126.98 125.341L2162.55 90.37L2354.37 90.37L2313.92 125.341L2126.98 125.341ZM-391.576 125.341L-426.652 90.3697L-234.263 90.3698L-204.151 125.341L-391.576 125.341ZM-585.105 125.341L-625.552 90.3697L-433.732 90.3697L-398.168 125.341L-585.105 125.341ZM-510.069 195.283L-481.016 220.089L-654.199 220.089L-686.752 195.283L-510.069 195.283ZM-326.958 195.283L-301.811 220.089L-475.4 220.089L-504.047 195.283L-326.958 195.283ZM-143.927 195.283L-122.605 220.089L-296.602 220.089L-321.424 195.283L-143.927 195.283ZM39.1026 195.283L56.5999 220.089L-117.722 220.089L-138.719 195.283L39.1026 195.283ZM222.133 195.283L235.724 220.089L61.0762 220.089L43.9041 195.283L222.051 195.283L222.133 195.283ZM405.082 195.283L414.848 220.089L239.956 220.089L226.609 195.283L405.082 195.283ZM956.044 164.029L954.01 191.718L774.723 191.718L772.688 164.029L956.044 164.029ZM1502.12 195.283L1488.78 220.089L1313.89 220.089L1323.65 195.283L1502.12 195.283ZM1506.68 195.283L1684.83 195.283L1667.66 220.089L1493.01 220.089L1506.6 195.283L1506.68 195.283ZM2022 223.503L1999.62 245.805L1829.28 245.805L1848.49 223.503L2022 223.503ZM2200.31 223.503L2174.51 245.805L2004.5 245.805L2027.21 223.503L2200.31 223.503ZM2378.62 223.503L2349.32 245.805L2179.72 245.805L2205.92 223.503L2378.62 223.503ZM2359.33 86.1219L2166.86 86.1219L2207.23 46.4476L2405.23 46.4476L2359.25 86.1219L2359.33 86.1219ZM1189.37 -8.47457L1201.82 -60.8932L1417.49 -60.8932L1397.47 -8.47455L1189.37 -8.47457ZM974.762 -8.47459L979.076 -60.8932L1194.98 -60.8932L1183.02 -8.47457L974.762 -8.47459ZM-832.59 90.3697L-786.121 125.341L-971.999 125.341L-1023.27 90.3697L-832.509 90.3697L-832.59 90.3697ZM-734.687 164.105L-697.901 191.793L-874.584 191.793L-915.194 164.105L-734.687 164.105ZM-477.028 223.503L-450.823 245.805L-620.425 245.805L-649.723 223.503L-477.028 223.503ZM-298.312 223.503L-275.605 245.805L-445.614 245.805L-471.413 223.503L-298.312 223.503ZM-119.676 223.503L-100.469 245.805L-270.804 245.805L-293.184 223.503L-119.676 223.503ZM588.031 195.283L593.971 220.089L418.917 220.089L409.476 195.283L588.112 195.283L588.031 195.283ZM770.979 195.283L773.014 220.089L597.878 220.089L592.262 195.283L771.061 195.283L770.979 195.283ZM957.916 195.283L1136.71 195.283L1131.1 220.089L955.881 220.089L957.916 195.283ZM1140.86 195.283L1319.5 195.283L1310.06 220.089L1135.01 220.089L1140.95 195.283L1140.86 195.283ZM1669.94 223.503L1843.77 223.503L1824.81 245.805L1654.15 245.805L1669.85 223.503L1669.94 223.503ZM2355.02 245.805L2384.64 223.503L2556.93 223.503L2524.21 245.805L2355.02 245.805ZM2389.2 220.089L2422.08 195.283L2598.27 195.283L2561.89 220.089L2389.12 220.089L2389.2 220.089ZM2649.62 160.312L2468.55 160.312L2509.73 129.286L2695.04 129.286L2649.54 160.312L2649.62 160.312ZM2004.99 41.8202L2044.13 -3.61952L2249.79 -3.6195L2204.21 41.8202L2004.99 41.8202ZM-693.1 195.283L-660.221 220.089L-832.997 220.089L-869.375 195.283L-693.181 195.283L-693.1 195.283ZM-655.664 223.503L-626.04 245.805L-795.235 245.805L-827.951 223.503L-655.664 223.503ZM59.0415 223.503L74.7483 245.805L-95.9119 245.805L-114.874 223.503L58.96 223.503L59.0415 223.503ZM237.677 223.503L249.966 245.805L79.0615 245.805L63.5989 223.503L237.758 223.503L237.677 223.503ZM416.313 223.503L425.102 245.805L253.953 245.805L241.909 223.503L416.313 223.503ZM594.867 223.503L600.157 245.805L428.845 245.805L420.3 223.503L594.867 223.503ZM953.928 195.283L952.138 220.089L776.92 220.089L775.13 195.283L953.928 195.283ZM1308.76 223.503L1300.21 245.805L1128.9 245.805L1134.19 223.503L1308.76 223.503ZM1312.75 223.503L1487.15 223.503L1475.1 245.805L1303.96 245.805L1312.75 223.503ZM1491.38 223.503L1665.54 223.503L1650.08 245.805L1479.17 245.805L1491.46 223.503L1491.38 223.503ZM1826.6 249.067L1996.44 249.067L1976.18 269.246L1809.18 269.246L1826.52 249.067L1826.6 249.067ZM2001.25 249.067L2170.77 249.067L2147.41 269.246L1980.74 269.246L2001.25 249.067ZM2175.97 249.067L2345.17 249.067L2318.72 269.246L2152.37 269.246L2176.06 249.067L2175.97 249.067ZM2350.7 249.067L2519.49 249.067L2489.87 269.246L2323.93 269.246L2350.7 249.067ZM2735.24 223.503L2699.02 245.805L2530.23 245.805L2563.36 223.503L2735.24 223.503ZM2558.96 86.1219L2367.06 86.1219L2413.61 46.4476L2611.05 46.4476L2558.96 86.1219ZM2211.95 41.896L2258.17 -3.54354L2463.26 -3.54352L2410.68 41.896L2212.03 41.896L2211.95 41.896ZM2048.28 -8.4745L2093.37 -60.8931L2307.16 -60.8931L2254.59 -8.47448L2048.2 -8.4745L2048.28 -8.4745ZM1203.2 -66.2792L1217.77 -127.27L1443.04 -127.27L1419.68 -66.2792L1203.2 -66.2792ZM979.646 -66.2792L984.691 -127.27L1210.2 -127.27L1196.29 -66.2792L979.646 -66.2792ZM-268.769 41.82L-307.264 -3.61972L-101.039 -3.61971L-68.9741 41.82L-268.688 41.82L-268.769 41.82ZM-475.238 41.82L-520.812 -3.61974L-315.158 -3.61972L-276.012 41.82L-475.238 41.82ZM-681.625 41.8199L-734.198 -3.61976L-529.113 -3.61974L-482.888 41.82L-681.543 41.8199L-681.625 41.8199ZM-888.012 41.8199L-947.666 -3.61978L-743.232 -3.61976L-689.926 41.8199L-888.012 41.8199ZM-890.942 46.3715L-838.206 86.0458L-1029.54 86.0458L-1087.81 46.3715L-891.023 46.3715L-890.942 46.3715ZM-922.6 164.029L-881.583 191.718L-1057.78 191.718L-1102.62 164.029L-922.6 164.029ZM-621.727 249.067L-594.952 269.246L-760.892 269.246L-790.515 249.067L-621.727 249.067ZM-446.998 249.067L-423.315 269.246L-589.662 269.246L-616.112 249.067L-446.916 249.067L-446.998 249.067ZM-272.269 249.067L-251.76 269.246L-418.432 269.246L-441.79 249.067L-272.269 249.067ZM-97.6208 249.067L-80.2864 269.246L-247.284 269.246L-267.548 249.067L-97.7021 249.067L-97.6208 249.067ZM77.0271 249.067L91.2691 269.246L-76.0542 269.246L-93.1448 249.067L77.0271 249.067ZM251.675 249.067L262.743 269.246L95.1755 269.246L81.1775 249.067L251.675 249.067ZM773.339 223.503L775.211 245.805L603.738 245.805L598.692 223.503L773.339 223.503ZM951.812 223.503L950.185 245.805L778.711 245.805L777.083 223.503L951.812 223.503ZM955.556 223.503L1130.2 223.503L1125.16 245.805L953.684 245.805L955.556 223.503ZM1647.64 249.067L1633.64 269.246L1466.07 269.246L1477.14 249.067L1647.64 249.067ZM1651.79 249.067L1821.96 249.067L1804.87 269.246L1637.54 269.246L1651.79 249.067ZM2143.67 272.432L2122.51 290.714L1958.84 290.714L1977.48 272.432L2143.75 272.432L2143.67 272.432ZM2314.41 272.432L2290.4 290.714L2127.06 290.714L2148.55 272.432L2314.49 272.432L2314.41 272.432ZM2485.15 272.432L2458.29 290.714L2295.28 290.714L2319.62 272.432L2485.15 272.432ZM2655.81 272.432L2626.1 290.714L2463.42 290.714L2490.6 272.432L2655.73 272.432L2655.81 272.432ZM2495.32 269.246L2525.27 249.067L2693.65 249.067L2660.94 269.246L2495.32 269.246ZM2568.32 220.089L2605.11 195.283L2780.81 195.283L2740.61 220.089L2568.32 220.089ZM2837.54 160.312L2657.03 160.312L2703.09 129.286L2887.91 129.286L2837.62 160.312L2837.54 160.312ZM2262.97 -8.47448L2316.28 -60.8931L2529.42 -60.8931L2468.79 -8.47446L2263.05 -8.47448L2262.97 -8.47448ZM-957.432 -3.54382L-897.046 41.8957L-1094.48 41.8957L-1161.13 -3.54384L-957.432 -3.54382ZM-1032.14 90.3697L-980.219 125.341L-1165.53 125.341L-1222.25 90.3697L-1032.14 90.3697ZM-876.374 195.283L-839.589 220.089L-1011.96 220.089L-1052.16 195.283L-876.456 195.283L-876.374 195.283ZM-796.538 249.067L-766.589 269.246L-932.203 269.246L-964.919 249.067L-796.538 249.067ZM-761.95 272.432L-734.768 290.714L-897.452 290.714L-927.157 272.432L-762.031 272.432L-761.95 272.432ZM-590.883 272.432L-566.549 290.714L-729.56 290.714L-756.416 272.432L-590.883 272.432ZM-419.816 272.432L-398.331 290.714L-561.666 290.714L-585.674 272.432L-419.734 272.432L-419.816 272.432ZM-248.749 272.432L-230.112 290.714L-393.773 290.714L-414.933 272.432L-248.667 272.432L-248.749 272.432ZM426.16 249.067L434.136 269.246L266.324 269.246L255.5 249.067L426.16 249.067ZM600.726 249.067L605.528 269.246L437.553 269.246L429.822 249.067L600.726 249.067ZM775.292 249.067L777.002 269.246L608.946 269.246L604.307 249.067L775.292 249.067ZM1124.26 249.067L1119.71 269.246L951.65 269.246L953.359 249.067L1124.34 249.067L1124.26 249.067ZM1127.84 249.067L1298.75 249.067L1291.02 269.246L1123.04 269.246L1127.84 249.067ZM1302.41 249.067L1473.15 249.067L1462.33 269.246L1294.52 269.246L1302.49 249.067L1302.41 249.067ZM1806.25 272.432L1972.84 272.432L1954.53 290.714L1790.54 290.714L1806.33 272.432L1806.25 272.432ZM2867.81 249.067L2832 269.246L2666.8 269.246L2699.92 249.067L2867.89 249.067L2867.81 249.067ZM2705.21 245.805L2741.83 223.503L2913.22 223.503L2873.59 245.805L2705.21 245.805ZM2758.19 86.1219L2566.86 86.1219L2619.59 46.4476L2816.38 46.4476L2758.11 86.1219L2758.19 86.1219ZM1873.96 -66.2033L1917.01 -127.194L2140.9 -127.194L2089.22 -66.2033L1874.04 -66.2033L1873.96 -66.2033ZM1218.83 -133.187L1235.92 -205.101L1472.42 -205.101L1444.91 -133.187L1218.75 -133.187L1218.83 -133.187ZM984.854 -133.187L990.795 -205.102L1227.54 -205.101L1211.18 -133.187L984.854 -133.187ZM-1168.54 -8.47478L-1245.45 -60.8934L-1033.77 -60.8934L-964.186 -8.47476L-1168.62 -8.47478L-1168.54 -8.47478ZM-1013.42 223.503L-976.801 245.805L-1145.18 245.805L-1184.82 223.503L-1013.42 223.503ZM-971.429 249.067L-938.307 269.246L-1103.51 269.246L-1139.32 249.067L-971.348 249.067L-971.429 249.067ZM-77.8447 272.432L-62.0564 290.714L-226.043 290.714L-244.354 272.432L-77.7632 272.432L-77.8447 272.432ZM93.1409 272.432L106.081 290.714L-58.1501 290.714L-73.6943 272.432L93.1409 272.432ZM264.126 272.432L274.218 290.714L109.743 290.714L97.0471 272.432L264.208 272.432L264.126 272.432ZM435.112 272.432L442.355 290.714L277.636 290.714L267.789 272.432L435.112 272.432ZM949.533 249.067L948.069 269.246L780.013 269.246L778.548 249.067L949.533 249.067ZM1460.29 272.432L1450.45 290.714L1285.73 290.714L1292.97 272.432L1460.29 272.432ZM1463.96 272.432L1631.12 272.432L1618.42 290.714L1453.95 290.714L1464.04 272.432L1463.96 272.432ZM1634.94 272.432L1801.78 272.432L1786.23 290.714L1622 290.714L1634.94 272.432ZM1955.35 293.748L2118.6 293.748L2099.31 310.437L1938.42 310.437L1955.35 293.748ZM2123.08 293.748L2286 293.748L2264.19 310.437L2103.63 310.437L2123.16 293.748L2123.08 293.748ZM2290.81 293.748L2453.41 293.748L2428.99 310.437L2268.67 310.437L2290.81 293.748ZM2458.54 293.748L2620.81 293.749L2593.79 310.437L2433.88 310.437L2458.62 293.748L2458.54 293.748ZM2626.27 293.749L2788.14 293.749L2758.6 310.438L2599 310.437L2626.35 293.749L2626.27 293.749ZM2631.23 290.714L2661.26 272.432L2826.06 272.432L2793.51 290.714L2631.23 290.714ZM2747.12 220.089L2787.73 195.283L2962.95 195.283L2918.92 220.089L2747.04 220.089L2747.12 220.089ZM3025.12 160.312L2845.11 160.312L2895.97 129.286L3080.14 129.286L3025.04 160.312L3025.12 160.312ZM1920.92 -133.187L1971.62 -205.101L2206.57 -205.101L2145.62 -133.187L1920.92 -133.187ZM-137.743 -66.2035L-179.98 -127.194L44.4739 -127.194L78.0035 -66.2035L-137.661 -66.2035L-137.743 -66.2035ZM-360.976 -66.2035L-412.654 -127.194L-188.851 -127.194L-145.8 -66.2035L-360.976 -66.2035ZM-584.128 -66.2035L-645.247 -127.194L-422.095 -127.194L-369.602 -66.2035L-584.128 -66.2035ZM-807.28 -66.2036L-877.921 -127.194L-655.5 -127.194L-593.487 -66.2035L-807.362 -66.2036L-807.28 -66.2036ZM-1030.43 -66.2036L-1110.43 -127.194L-888.745 -127.194L-817.208 -66.2036L-1030.35 -66.2036L-1030.43 -66.2036ZM-1171.96 -3.54384L-1104.49 41.8957L-1301.27 41.8957L-1374.93 -3.54386L-1171.88 -3.54384L-1171.96 -3.54384ZM-1168.13 129.285L-1117.27 160.312L-1297.29 160.312L-1352.38 129.285L-1168.13 129.285ZM-1111.08 164.029L-1065.67 191.718L-1241.38 191.718L-1290.53 164.029L-1111.08 164.029ZM-1059.89 195.283L-1019.28 220.089L-1191.16 220.089L-1235.19 195.283L-1059.97 195.283L-1059.89 195.283ZM-933.423 272.356L-903.394 290.638L-1065.67 290.638L-1098.22 272.356L-933.423 272.356ZM-898.429 293.672L-871.085 310.361L-1030.68 310.361L-1060.22 293.672L-898.348 293.672L-898.429 293.672ZM-730.699 293.672L-705.958 310.361L-865.876 310.361L-892.895 293.672L-730.699 293.672ZM-562.968 293.672L-540.833 310.361L-701.075 310.361L-725.49 293.672L-562.887 293.672L-562.968 293.672ZM-395.238 293.672L-375.706 310.361L-536.275 310.361L-558.085 293.672L-395.157 293.672L-395.238 293.672ZM-227.508 293.672L-210.581 310.361L-371.475 310.361L-390.762 293.672L-227.508 293.672ZM-59.7776 293.672L-45.4546 310.361L-206.674 310.361L-223.357 293.672L-59.7776 293.672ZM107.952 293.672L119.671 310.361L-41.792 310.361L-55.8716 293.672L107.952 293.672ZM605.853 272.356L610.248 290.638L445.366 290.638L438.367 272.356L605.853 272.356ZM776.758 272.356L778.304 290.638L613.341 290.638L609.19 272.356L776.758 272.356ZM947.662 272.356L946.36 290.638L781.396 290.638L780.094 272.356L947.743 272.356L947.662 272.356ZM950.917 272.356L1118.48 272.356L1114.33 290.638L949.371 290.638L950.917 272.356ZM1121.82 272.356L1289.31 272.356L1282.31 290.638L1117.43 290.638L1121.82 272.356ZM1783.55 293.673L1769.47 310.361L1608 310.361L1619.72 293.672L1783.55 293.673ZM1787.45 293.673L1951.03 293.673L1934.35 310.362L1773.13 310.361L1787.45 293.673ZM2764.05 310.362L2793.92 293.673L2955.38 293.673L2923.23 310.362L2763.97 310.362L2764.05 310.362ZM2996.64 272.356L2961.32 290.638L2799.45 290.638L2832.33 272.356L2996.72 272.356L2996.64 272.356ZM2837.94 269.17L2874.16 248.992L3041.65 248.992L3002.66 269.17L2837.86 269.17L2837.94 269.17ZM2880.02 245.73L2920.14 223.427L3091.13 223.427L3047.99 245.73L2880.02 245.73ZM2957.33 86.0462L2766.65 86.0461L2825.57 46.3718L3021.71 46.3718L2957.33 86.0462ZM2758.19 -66.2791L2545.05 -66.2791L2616.58 -127.27L2838.27 -127.27L2758.27 -66.2791L2758.19 -66.2791ZM1237.22 -211.777L1257.65 -297.65L1507.58 -297.65L1474.7 -211.777L1237.22 -211.777ZM991.039 -211.777L998.119 -297.65L1248.29 -297.65L1228.76 -211.777L991.039 -211.777ZM-1253.58 -66.2794L-1343.11 -127.27L-1122.23 -127.27L-1041.17 -66.2794L-1253.58 -66.2794ZM-1257.08 -60.8934L-1179.28 -8.47478L-1382.98 -8.4748L-1467.95 -60.8934L-1257.08 -60.8934ZM-1192.38 223.503L-1152.26 245.805L-1320.24 245.805L-1363.29 223.502L-1192.3 223.503L-1192.38 223.503ZM-1146.4 249.067L-1110.19 269.246L-1274.99 269.246L-1313.97 249.067L-1146.48 249.067L-1146.4 249.067ZM-1104.49 272.432L-1071.61 290.714L-1233.48 290.714L-1268.8 272.432L-1104.41 272.432L-1104.49 272.432ZM-1066.16 293.748L-1036.29 310.437L-1195.56 310.437L-1227.7 293.748L-1066.24 293.748L-1066.16 293.748ZM275.683 293.748L284.798 310.437L123.09 310.437L111.533 293.748L275.602 293.748L275.683 293.748ZM443.332 293.748L449.924 310.437L288.053 310.437L279.101 293.748L443.332 293.748ZM610.98 293.748L614.968 310.437L452.935 310.437L446.587 293.748L610.98 293.748ZM778.629 293.748L780.013 310.437L617.898 310.437L614.073 293.748L778.548 293.748L778.629 293.748ZM1113.76 293.748L1109.94 310.437L947.824 310.437L949.208 293.748L1113.68 293.748L1113.76 293.748ZM1281.25 293.748L1274.9 310.437L1112.87 310.437L1116.86 293.748L1281.25 293.748ZM1284.51 293.748L1448.74 293.748L1439.78 310.437L1277.91 310.437L1284.51 293.748ZM1452.15 293.748L1616.22 293.748L1604.67 310.437L1442.96 310.437L1452.07 293.748L1452.15 293.748ZM1935.33 313.32L2095.81 313.32L2078.23 328.492L1919.86 328.492L1935.33 313.32ZM2100.04 313.32L2260.21 313.32L2240.27 328.492L2082.22 328.492L2100.04 313.32ZM2264.76 313.32L2424.6 313.32L2402.3 328.492L2244.5 328.492L2264.68 313.32L2264.76 313.32ZM2429.48 313.32L2589.07 313.32L2564.42 328.492L2406.94 328.492L2429.48 313.32ZM2594.2 313.32L2753.39 313.32L2726.37 328.492L2569.22 328.492L2594.2 313.32ZM2758.92 313.32L2917.78 313.32L2888.4 328.492L2731.58 328.492L2758.92 313.32ZM3082.09 313.32L3050.35 328.492L2893.85 328.492L2923.56 313.32L3082.01 313.32L3082.09 313.32ZM2926.49 220.013L2971 195.207L3145.73 195.207L3097.88 220.013L2926.49 220.013ZM3213.28 160.236L3033.83 160.236L3089.58 129.21L3273.18 129.21L3213.28 160.236ZM1730 -211.853L1777.2 -297.725L2026.07 -297.725L1966.58 -211.853L1730 -211.853ZM-1304.04 46.2955L-1238.94 85.9699L-1429.05 85.9699L-1499.6 46.2955L-1304.12 46.2955L-1304.04 46.2955ZM-1361.5 129.21L-1305.75 160.236L-1485.2 160.236L-1545.1 129.21L-1361.5 129.21ZM-1299 163.953L-1249.27 191.642L-1424.49 191.642L-1477.88 163.953L-1298.91 163.953L-1299 163.953ZM-1242.92 195.207L-1198.41 220.013L-1369.8 220.013L-1417.65 195.207L-1242.92 195.207ZM-1195.56 313.244L-1165.85 328.416L-1322.35 328.416L-1354.09 313.244L-1195.64 313.244L-1195.56 313.244ZM-1030.84 313.244L-1003.49 328.416L-1160.32 328.416L-1189.7 313.244L-1030.84 313.244ZM-866.12 313.244L-841.135 328.416L-998.286 328.416L-1025.31 313.244L-866.12 313.244ZM-701.401 313.244L-678.858 328.416L-836.334 328.416L-860.993 313.244L-701.482 313.244L-701.401 313.244ZM-536.682 313.244L-516.499 328.416L-674.3 328.416L-696.6 313.244L-536.682 313.244ZM-371.963 313.244L-354.14 328.416L-512.186 328.416L-532.125 313.244L-371.963 313.244ZM-207.325 313.244L-191.862 328.416L-350.234 328.416L-367.812 313.244L-207.325 313.244ZM-42.6872 313.244L-29.5847 328.416L-188.2 328.416L-203.418 313.244L-42.6872 313.244ZM121.95 313.244L132.693 328.416L-26.1665 328.416L-39.0251 313.244L122.032 313.244L121.95 313.244ZM286.588 313.244L294.971 328.416L135.867 328.416L125.287 313.244L286.507 313.244L286.588 313.244ZM946.278 293.672L945.058 310.361L782.942 310.361L781.722 293.672L946.278 293.672ZM1602.71 313.244L1592.21 328.416L1433.11 328.416L1441.49 313.244L1602.71 313.244ZM1606.13 313.244L1767.19 313.244L1754.33 328.416L1595.47 328.416L1606.21 313.244L1606.13 313.244ZM1770.77 313.244L1931.58 313.244L1916.36 328.416L1757.75 328.416L1770.85 313.244L1770.77 313.244ZM2929.34 310.286L2961.81 293.597L3122.95 293.597L3088.2 310.286L2929.34 310.286ZM2967.83 290.562L3003.56 272.28L3167.54 272.28L3129.38 290.562L2967.83 290.562ZM3009.74 269.094L3049.13 248.916L3216.21 248.916L3174.14 269.094L3009.74 269.094ZM3055.48 245.654L3099.02 223.351L3269.52 223.351L3222.97 245.654L3055.48 245.654ZM3157.05 85.9703L2966.94 85.9703L3032.04 46.2959L3227.52 46.2959L3156.96 85.9703L3157.05 85.9703ZM2981.5 -66.3549L2769.09 -66.3549L2850.15 -127.346L3071.02 -127.346L2981.5 -66.3549ZM2949.28 -211.853L2715.79 -211.853L2816.46 -297.725L3061.91 -297.725L2949.28 -211.853ZM1781.27 -305.311L1838.48 -409.39L2103.38 -409.39L2031.28 -305.311L1781.35 -305.311L1781.27 -305.311ZM1259.6 -305.311L1284.42 -409.39L1550.47 -409.39L1510.59 -305.311L1259.6 -305.311ZM998.852 -305.311L1007.48 -409.39L1273.84 -409.39L1250.16 -305.311L998.933 -305.311L998.852 -305.311ZM7.20049 -211.853L-38.9435 -297.726L210.495 -297.726L244.269 -211.853L7.20049 -211.853ZM-238.576 -211.853L-298.067 -297.726L-49.1979 -297.726L-1.9958 -211.853L-238.576 -211.853ZM-484.352 -211.853L-557.109 -297.726L-308.972 -297.726L-248.423 -211.853L-484.352 -211.853ZM-730.048 -211.853L-816.07 -297.726L-568.747 -297.726L-494.851 -211.853L-729.966 -211.853L-730.048 -211.853ZM-975.743 -211.853L-1075.11 -297.726L-828.684 -297.726L-741.441 -211.853L-975.743 -211.853ZM-1221.36 -211.853L-1333.99 -297.726L-1088.54 -297.726L-987.869 -211.853L-1221.36 -211.853ZM-1351.73 -133.263L-1457.2 -205.178L-1225.59 -205.178L-1130.04 -133.263L-1351.73 -133.263ZM-1355.56 -127.346L-1264.98 -66.3553L-1476.57 -66.3553L-1575.45 -127.346L-1355.48 -127.346L-1355.56 -127.346ZM-1386.08 -3.69562L-1311.53 41.744L-1507.66 41.744L-1588.39 -3.69564L-1386.16 -3.69562L-1386.08 -3.69562ZM-1371.1 223.351L-1327.56 245.653L-1495.05 245.653L-1541.6 223.351L-1371.1 223.351ZM-1321.13 248.915L-1281.74 269.094L-1446.14 269.094L-1488.21 248.915L-1321.13 248.915ZM-1275.56 272.28L-1239.83 290.562L-1401.29 290.562L-1439.46 272.28L-1275.48 272.28L-1275.56 272.28ZM-1233.89 293.596L-1201.42 310.285L-1360.28 310.285L-1395.03 293.596L-1233.97 293.596L-1233.89 293.596ZM451.145 313.168L457.167 328.34L297.9 328.34L289.681 313.168L451.145 313.168ZM615.701 313.168L619.363 328.34L460.015 328.34L454.237 313.168L615.782 313.168L615.701 313.168ZM780.257 313.168L781.559 328.34L622.13 328.34L618.631 313.168L780.257 313.168ZM947.662 313.168L1109.29 313.168L1105.79 328.34L946.36 328.34L947.662 313.168ZM1112.22 313.168L1273.76 313.168L1267.98 328.34L1108.64 328.34L1112.3 313.168L1112.22 313.168ZM1276.77 313.168L1438.24 313.168L1430.02 328.34L1270.75 328.34L1276.77 313.168ZM1916.93 331.223L2074.9 331.223L2058.78 345.181L1902.77 345.181L1916.93 331.223ZM2078.8 331.223L2236.44 331.223L2218.21 345.181L2062.53 345.181L2078.88 331.223L2078.8 331.223ZM2240.67 331.223L2398.07 331.223L2377.64 345.181L2222.2 345.181L2240.67 331.223ZM2402.54 331.223L2559.61 331.223L2537.07 345.181L2381.95 345.181L2402.63 331.223L2402.54 331.223ZM2564.42 331.223L2721.16 331.223L2696.42 345.181L2541.55 345.181L2564.42 331.223ZM2726.29 331.223L2882.7 331.223L2855.85 345.181L2701.3 345.181L2726.29 331.223ZM2888.16 331.223L3044.25 331.223L3015.2 345.181L2860.97 345.181L2888.16 331.223ZM3050.03 331.223L3205.79 331.223L3174.62 345.181L3020.73 345.181L3050.11 331.223L3050.03 331.223ZM3056.05 328.34L3088.11 313.168L3246.24 313.168L3212.14 328.34L3056.05 328.34ZM3290.19 293.521L3252.92 310.21L3094.38 310.21L3129.46 293.521L3290.19 293.521ZM3105.53 219.862L3153.87 195.056L3328.11 195.056L3276.43 219.862L3105.53 219.862ZM3401.11 160.085L3222.23 160.085L3282.78 129.058L3465.81 129.058L3401.11 160.085ZM2564.17 -305.463L2669.97 -409.542L2932.1 -409.542L2811.66 -305.463L2564.17 -305.463ZM2303.09 -305.463L2392.7 -409.542L2655.81 -409.542L2551.48 -305.463L2303.09 -305.463ZM-1480.24 -61.121L-1394.3 -8.70234L-1597.26 -8.70236L-1690.37 -61.121L-1480.32 -61.121L-1480.24 -61.121ZM-1431.65 90.1421L-1368.82 125.113L-1552.99 125.113L-1620.54 90.1421L-1431.65 90.1421ZM-1433.2 191.566L-1607.93 191.566L-1665.63 163.877L-1487.23 163.877L-1433.2 191.566ZM-1426.2 195.131L-1377.86 219.937L-1548.76 219.937L-1600.44 195.131L-1426.2 195.131ZM-1401.78 293.596L-1366.71 310.285L-1525.24 310.285L-1562.51 293.596L-1401.78 293.596ZM-1360.44 313.168L-1328.38 328.34L-1484.47 328.34L-1518.57 313.168L-1360.44 313.168ZM-1322.35 331.222L-1292.97 345.181L-1446.87 345.181L-1478.04 331.222L-1322.27 331.222L-1322.35 331.222ZM-1160.48 331.223L-1133.3 345.181L-1287.52 345.181L-1316.58 331.222L-1160.48 331.223ZM-998.612 331.223L-973.627 345.181L-1128.17 345.181L-1155.03 331.223L-998.612 331.223ZM-836.741 331.223L-813.872 345.181L-968.744 345.181L-993.484 331.223L-836.741 331.223ZM-674.87 331.223L-654.199 345.181L-809.315 345.181L-831.858 331.223L-674.789 331.223L-674.87 331.223ZM-513 331.223L-494.525 345.181L-649.967 345.181L-670.394 331.223L-513 331.223ZM-351.129 331.223L-334.771 345.181L-490.457 345.181L-508.768 331.223L-351.129 331.223ZM-189.258 331.223L-175.097 345.181L-331.108 345.181L-347.222 331.223L-189.258 331.223ZM-27.3874 331.223L-15.4243 345.181L-171.679 345.181L-185.596 331.223L-27.3874 331.223ZM134.483 331.223L144.331 345.181L-12.1685 345.181L-23.9692 331.223L134.483 331.223ZM296.273 331.223L303.923 345.181L147.261 345.181L137.576 331.223L296.273 331.223ZM458.062 331.223L463.515 345.181L306.689 345.181L299.202 331.223L458.062 331.223ZM619.851 331.223L623.188 345.181L466.281 345.181L460.991 331.223L619.933 331.223L619.851 331.223ZM944.65 313.168L943.511 328.34L784.001 328.34L782.862 313.168L944.569 313.168L944.65 313.168ZM1266.68 331.223L1261.39 345.181L1104.41 345.181L1107.74 331.223L1266.68 331.223ZM1428.31 331.223L1420.82 345.181L1264 345.181L1269.45 331.223L1428.31 331.223ZM1431.24 331.223L1589.94 331.223L1580.25 345.181L1423.59 345.181L1431.24 331.223ZM1593.03 331.223L1751.48 331.223L1739.68 345.181L1583.18 345.181L1593.03 331.223ZM1754.82 331.223L1913.03 331.223L1899.11 345.181L1742.85 345.181L1754.82 331.223ZM3180.16 345.181L3211.65 331.223L3367.01 331.223L3333.65 345.181L3180.08 345.181L3180.16 345.181ZM3135.64 290.487L3174.22 272.204L3337.72 272.204L3296.7 290.487L3135.56 290.487L3135.64 290.487ZM3180.89 269.018L3223.45 248.84L3390.05 248.84L3344.88 269.018L3180.89 269.018ZM3230.29 245.578L3277.33 223.275L3447.34 223.275L3397.37 245.578L3230.29 245.578ZM3356.11 85.8944L3166.65 85.8944L3237.94 46.2201L3432.77 46.2201L3356.11 85.8944ZM2992.57 -66.4308L3083.15 -127.422L3303.13 -127.422L3204.25 -66.4308L2992.65 -66.4308L2992.57 -66.4308ZM3071.51 -305.387L2825 -305.387L2947.08 -409.466L3208.07 -409.466L3071.51 -305.387ZM1843.04 -418.417L1913.76 -547.226L2198.36 -547.226L2109.16 -418.417L1843.04 -418.417ZM1564.54 -418.417L1615.25 -547.226L1900.66 -547.226L1831.4 -418.417L1564.54 -418.417ZM1286.13 -418.417L1316.81 -547.226L1602.71 -547.226L1553.4 -418.417L1286.05 -418.417L1286.13 -418.417ZM1007.89 -418.417L1018.55 -547.226L1304.85 -547.226L1275.55 -418.417L1007.89 -418.417ZM-1344.33 -305.388L-1480.89 -409.466L-1219.89 -409.466L-1097.82 -305.388L-1344.33 -305.388ZM-1467.3 -211.929L-1593.2 -297.802L-1348.8 -297.802L-1234.78 -211.929L-1467.3 -211.929ZM-1471.45 -205.253L-1364.75 -133.339L-1585.54 -133.339L-1702.17 -205.253L-1471.53 -205.253L-1471.45 -205.253ZM-1555.27 129.134L-1494.72 160.16L-1673.6 160.16L-1738.3 129.134L-1555.27 129.134ZM-1550.14 223.351L-1503.1 245.653L-1670.18 245.653L-1720.15 223.351L-1550.14 223.351ZM-1496.19 248.915L-1453.62 269.094L-1617.61 269.094L-1662.78 248.915L-1496.19 248.915ZM-1447.03 272.28L-1408.46 290.562L-1569.59 290.562L-1610.61 272.28L-1447.11 272.28L-1447.03 272.28ZM-1484.47 331.298L-1452.97 345.256L-1606.54 345.256L-1639.91 331.298L-1484.55 331.298L-1484.47 331.298ZM781.396 331.299L782.536 345.257L625.548 345.257L622.374 331.299L781.396 331.299ZM943.104 331.299L942.128 345.257L785.059 345.257L784.082 331.299L943.186 331.299L943.104 331.299ZM945.79 331.299L1104.81 331.299L1101.64 345.257L944.65 345.257L945.79 331.299ZM1899.6 348.064L2055.2 348.064L2040.39 360.808L1886.58 360.808L1899.52 348.064L1899.6 348.064ZM2058.86 348.064L2214.22 348.064L2197.46 360.808L2043.89 360.808L2058.86 348.064ZM2218.13 348.064L2373.17 348.064L2354.45 360.808L2201.12 360.808L2218.05 348.064L2218.13 348.064ZM2377.4 348.064L2532.19 348.064L2511.52 360.808L2358.52 360.808L2377.48 348.064L2377.4 348.064ZM2536.66 348.064L2691.13 348.064L2668.42 360.808L2515.67 360.808L2536.58 348.064L2536.66 348.064ZM2695.93 348.064L2850.07 348.064L2825.41 360.808L2672.98 360.808L2695.93 348.064ZM2855.2 348.064L3009.01 348.064L2982.4 360.808L2830.21 360.808L2855.12 348.064L2855.2 348.064ZM3014.46 348.064L3168.03 348.064L3139.47 360.808L2987.61 360.808L3014.54 348.064L3014.46 348.064ZM3173.73 348.064L3326.97 348.064L3296.37 360.808L3144.84 360.808L3173.73 348.064ZM3485.91 348.064L3453.36 360.808L3302.15 360.808L3333.08 348.064L3486 348.064L3485.91 348.064ZM3218.08 328.492L3252.51 313.32L3410.23 313.32L3373.77 328.492L3218 328.492L3218.08 328.492ZM3259.18 310.362L3296.86 293.673L3457.19 293.673L3417.31 310.362L3259.18 310.362ZM3284.41 220.013L3336.66 195.207L3510.33 195.207L3454.83 220.013L3284.41 220.013ZM3588.7 160.236L3410.39 160.236L3475.82 129.21L3658.28 129.21L3588.78 160.236L3588.7 160.236ZM2678.68 -418.341L2809.62 -547.15L3091.13 -547.15L2942.11 -418.341L2678.76 -418.341L2678.68 -418.341ZM173.547 -418.342L124.229 -547.15L410.128 -547.15L440.809 -418.342L173.466 -418.342L173.547 -418.342ZM-104.294 -418.342L-173.551 -547.151L111.859 -547.15L162.561 -418.342L-104.294 -418.342ZM-382.054 -418.342L-471.25 -547.151L-186.654 -547.151L-115.932 -418.342L-382.054 -418.342ZM-659.814 -418.342L-768.949 -547.151L-485.247 -547.151L-394.425 -418.342L-659.733 -418.342L-659.814 -418.342ZM-937.493 -418.342L-1066.57 -547.151L-783.923 -547.151L-673.08 -418.342L-937.493 -418.342ZM-1215.09 -418.342L-1364.1 -547.151L-1082.6 -547.151L-951.653 -418.342L-1215.01 -418.342L-1215.09 -418.342ZM-1589.37 -127.346L-1489.35 -66.3553L-1700.13 -66.3553L-1808.45 -127.346L-1589.37 -127.346ZM-1600.6 -3.69564L-1518.97 41.744L-1714.37 41.744L-1802.1 -3.69566L-1600.6 -3.69564ZM-1617.12 191.642L-1791.28 191.642L-1853.21 163.953L-1675.39 163.953L-1617.04 191.642L-1617.12 191.642ZM-1609.63 195.207L-1557.39 220.013L-1727.8 220.013L-1783.31 195.207L-1609.63 195.207ZM-1569.84 293.672L-1532.16 310.361L-1690.29 310.361L-1730.16 293.672L-1569.84 293.672ZM-1525.4 313.244L-1490.98 328.416L-1646.75 328.416L-1683.2 313.244L-1525.48 313.244L-1525.4 313.244ZM-1605.89 348.063L-1574.97 360.808L-1726.17 360.808L-1758.73 348.063L-1605.81 348.063L-1605.89 348.063ZM-1446.62 348.063L-1417.73 360.808L-1569.27 360.808L-1599.87 348.063L-1446.62 348.063ZM-1287.36 348.063L-1260.42 360.808L-1412.28 360.808L-1440.85 348.063L-1287.28 348.063L-1287.36 348.063ZM-1128.09 348.063L-1103.19 360.808L-1255.37 360.808L-1281.99 348.063L-1128.17 348.063L-1128.09 348.063ZM-968.825 348.063L-945.875 360.808L-1098.31 360.808L-1122.96 348.063L-968.825 348.063ZM-809.559 348.063L-788.644 360.808L-941.399 360.808L-964.105 348.063L-809.64 348.063L-809.559 348.063ZM-650.293 348.063L-631.33 360.808L-784.33 360.808L-805.001 348.063L-650.211 348.063L-650.293 348.063ZM-491.026 348.063L-474.098 360.808L-627.424 360.808L-646.142 348.063L-491.108 348.063L-491.026 348.063ZM-331.76 348.063L-316.785 360.808L-470.354 360.808L-487.12 348.063L-331.76 348.063ZM-172.493 348.063L-159.553 360.808L-313.367 360.808L-328.179 348.063L-172.575 348.063L-172.493 348.063ZM-13.2268 348.063L-2.23999 360.808L-156.298 360.808L-169.075 348.063L-13.2268 348.063ZM146.04 348.063L155.073 360.808L0.852298 360.808L-9.97143 348.063L146.121 348.063L146.04 348.063ZM305.225 348.063L312.224 360.808L157.759 360.808L148.888 348.063L305.143 348.063L305.225 348.063ZM464.41 348.063L469.456 360.808L314.828 360.808L307.992 348.063L464.41 348.063ZM623.595 348.063L626.606 360.808L471.897 360.808L467.014 348.063L623.595 348.063ZM782.698 348.063L783.757 360.808L628.966 360.808L626.036 348.063L782.617 348.063L782.698 348.063ZM1100.91 348.063L1097.98 360.808L943.186 360.808L944.244 348.063L1100.91 348.063ZM1103.43 348.063L1259.93 348.063L1255.05 360.808L1100.34 360.808L1103.35 348.063L1103.43 348.063ZM1262.61 348.063L1419.03 348.063L1412.2 360.808L1257.57 360.808L1262.61 348.063ZM1421.8 348.063L1578.05 348.063L1569.18 360.808L1414.72 360.808L1421.72 348.063L1421.8 348.063ZM1580.98 348.063L1737.08 348.063L1726.25 360.808L1572.03 360.808L1581.07 348.063L1580.98 348.063ZM1740.17 348.063L1896.02 348.064L1883.24 360.808L1729.18 360.808L1740.17 348.063ZM3339.67 345.257L3373.36 331.299L3528.4 331.299L3492.91 345.257L3339.67 345.257ZM3574.54 313.244L3535.8 328.416L3380.36 328.416L3417.15 313.244L3574.54 313.244ZM3303.7 290.562L3345.12 272.28L3508.21 272.28L3464.43 290.562L3303.7 290.562ZM3352.28 269.094L3397.94 248.916L3564.12 248.916L3515.78 269.094L3352.28 269.094ZM3405.35 245.654L3455.88 223.351L3625.4 223.351L3571.94 245.654L3405.35 245.654ZM3216.29 -66.4308L3316.31 -127.422L3535.4 -127.421L3427.07 -66.4308L3216.29 -66.4308ZM3208.4 -211.929L3335.84 -297.801L3579.18 -297.801L3440.01 -211.929L3208.48 -211.929L3208.4 -211.929ZM3331.45 -305.387L3086 -305.387L3224.27 -409.466L3484.12 -409.466L3331.45 -305.387ZM2957.41 -418.417L3108.46 -547.226L3388.66 -547.226L3219.71 -418.417L2957.41 -418.417ZM2219.68 -557.771L2334.83 -721.095L2643.36 -721.095L2504.92 -557.771L2219.76 -557.771L2219.68 -557.771ZM1919.46 -557.771L2009.22 -721.095L2318.8 -721.095L2205.68 -557.771L1919.54 -557.771L1919.46 -557.771ZM1619.32 -557.771L1683.61 -721.095L1994 -721.095L1906.19 -557.771L1619.32 -557.771ZM1319.26 -557.771L1358.16 -721.095L1669.2 -721.095L1606.7 -557.771L1319.26 -557.771ZM1019.28 -557.771L1032.79 -721.095L1344.32 -721.095L1307.13 -557.771L1019.28 -557.771ZM-1604.51 -305.388L-1757.18 -409.466L-1497.33 -409.466L-1359.06 -305.388L-1604.51 -305.388ZM-1713.07 -211.929L-1852.24 -297.802L-1608.9 -297.802L-1481.46 -211.929L-1712.99 -211.929L-1713.07 -211.929ZM-1811.71 -8.62648L-1912.87 -61.0452L-1703.63 -61.0452L-1609.47 -8.62646L-1811.63 -8.62648L-1811.71 -8.62648ZM-1717.3 46.2197L-1639.75 85.894L-1828.55 85.894L-1911.4 46.2196L-1717.3 46.2197ZM-1748.88 129.134L-1683.45 160.16L-1861.76 160.16L-1931.26 129.134L-1748.8 129.134L-1748.88 129.134ZM-1729.02 223.351L-1678.48 245.653L-1845.08 245.653L-1898.54 223.351L-1729.02 223.351ZM-1671.08 248.915L-1625.42 269.094L-1788.92 269.094L-1837.26 248.915L-1671.08 248.915ZM-1618.26 272.28L-1576.84 290.562L-1737.57 290.562L-1781.43 272.28L-1618.34 272.28L-1618.26 272.28ZM-1690.2 313.244L-1653.42 328.416L-1808.86 328.416L-1847.6 313.244L-1690.2 313.244ZM-1646.42 331.298L-1612.73 345.256L-1765.97 345.256L-1801.45 331.298L-1646.42 331.298ZM941.802 348.063L940.907 360.808L786.117 360.808L785.221 348.063L941.884 348.063L941.802 348.063ZM1883.73 363.539L2037.14 363.539L2023.54 375.297L1871.77 375.297L1883.73 363.539ZM2040.55 363.539L2193.72 363.539L2178.33 375.297L2026.8 375.297L2040.55 363.539ZM2197.38 363.539L2350.3 363.539L2333.04 375.297L2181.75 375.297L2197.38 363.539ZM2354.2 363.539L2506.88 363.539L2487.83 375.297L2336.79 375.297L2354.2 363.539ZM2511.03 363.539L2663.38 363.539L2642.54 375.297L2491.74 375.297L2511.03 363.539ZM2667.85 363.539L2819.96 363.539L2797.25 375.297L2646.77 375.297L2667.85 363.539ZM2824.68 363.539L2976.46 363.539L2951.96 375.297L2801.73 375.297L2824.68 363.539ZM2981.58 363.539L3133.04 363.539L3106.75 375.297L2956.84 375.297L2981.58 363.539ZM3138.41 363.539L3289.62 363.539L3261.46 375.297L3111.8 375.297L3138.41 363.539ZM3295.23 363.539L3446.12 363.539L3416.17 375.297L3266.83 375.297L3295.23 363.539ZM3452.14 363.539L3602.7 363.539L3570.96 375.297L3421.87 375.297L3452.14 363.539ZM3459.22 360.808L3492.1 348.064L3644.69 348.064L3610.19 360.808L3459.3 360.808L3459.22 360.808ZM3582.03 310.286L3424.31 310.286L3464.59 293.597L3624.51 293.597L3582.03 310.286ZM3463.62 219.938L3519.69 195.132L3692.87 195.132L3633.54 219.938L3463.62 219.938ZM3527.83 191.566L3590.49 163.878L3767.74 163.878L3701.5 191.566L3527.83 191.566ZM-1717.14 -205.253L-1599.22 -133.339L-1819.11 -133.339L-1946.8 -205.253L-1717.14 -205.253ZM-1863.55 163.877L-1800.88 191.566L-1974.56 191.566L-2040.8 163.877L-1863.55 163.877ZM-1792.83 195.131L-1736.75 219.937L-1906.68 219.937L-1966.01 195.131L-1792.83 195.131ZM-1737.65 293.596L-1697.37 310.285L-1855.09 310.285L-1897.57 293.596L-1737.65 293.596ZM-1765.24 347.987L-1732.36 360.732L-1883.24 360.732L-1917.75 347.987L-1765.16 347.987L-1765.24 347.987ZM-1725.28 363.463L-1695.01 375.221L-1844.1 375.221L-1875.84 363.463L-1725.28 363.463ZM-1568.37 363.463L-1539.97 375.221L-1689.31 375.221L-1719.26 363.463L-1568.37 363.463ZM-1411.55 363.463L-1384.94 375.221L-1534.6 375.221L-1562.68 363.463L-1411.47 363.463L-1411.55 363.463ZM-1254.72 363.463L-1229.98 375.221L-1379.89 375.221L-1406.18 363.463L-1254.72 363.463ZM-1097.9 363.463L-1074.95 375.221L-1225.18 375.221L-1249.68 363.463L-1097.9 363.463ZM-941.074 363.463L-919.995 375.221L-1070.47 375.221L-1093.18 363.463L-941.074 363.463ZM-784.249 363.463L-764.961 375.221L-915.682 375.221L-936.517 363.463L-784.167 363.463L-784.249 363.463ZM-627.424 363.463L-610.008 375.221L-761.055 375.221L-780.098 363.463L-627.424 363.463ZM-470.599 363.463L-454.974 375.221L-606.264 375.221L-623.518 363.463L-470.599 363.463ZM-313.774 363.463L-300.02 375.221L-451.555 375.221L-466.937 363.463L-313.774 363.463ZM-156.949 363.463L-144.986 375.221L-296.765 375.221L-310.356 363.463L-156.949 363.463ZM-0.124265 363.463L9.96753 375.221L-141.975 375.221L-153.775 363.463L-0.124265 363.463ZM156.701 363.463L165.002 375.221L12.8157 375.221L2.88697 363.463L156.782 363.463L156.701 363.463ZM313.526 363.463L319.955 375.221L167.606 375.221L159.468 363.463L313.526 363.463ZM470.27 363.463L474.908 375.221L322.396 375.221L316.049 363.463L470.27 363.463ZM627.013 363.463L629.78 375.221L477.187 375.221L472.711 363.463L627.013 363.463ZM783.757 363.463L784.733 375.221L632.059 375.221L629.373 363.463L783.757 363.463ZM942.779 363.463L1097.16 363.463L1094.48 375.221L941.802 375.221L942.779 363.463ZM1099.52 363.463L1253.82 363.463L1249.35 375.221L1096.76 375.221L1099.52 363.463ZM1256.27 363.463L1410.49 363.463L1404.14 375.221L1251.63 375.221L1256.27 363.463ZM1413.01 363.463L1567.07 363.463L1558.93 375.221L1406.58 375.221L1413.01 363.463ZM1569.83 363.463L1723.73 363.463L1713.8 375.221L1561.61 375.221L1569.92 363.463L1569.83 363.463ZM1726.66 363.463L1880.31 363.463L1868.51 375.221L1716.57 375.221L1726.66 363.463ZM3576.82 375.221L3608.88 363.463L3759.12 363.463L3725.59 375.221L3576.82 375.221ZM3499.18 345.181L3535.07 331.223L3689.78 331.223L3652.1 345.181L3499.18 345.181ZM3542.48 328.416L3581.7 313.244L3738.69 313.244L3697.59 328.416L3542.56 328.416L3542.48 328.416ZM3471.75 290.562L3516.03 272.28L3678.71 272.28L3632.08 290.562L3471.75 290.562ZM3523.68 269.094L3572.51 248.916L3738.2 248.916L3686.77 269.094L3523.68 269.094ZM3580.4 245.654L3634.44 223.351L3804.37 223.351L3747.48 245.654L3581.38 245.654L3580.4 245.654ZM3566.57 85.9704L3650.31 46.2959L3844.57 46.296L3755.62 85.9704L3567.46 85.9704L3566.57 85.9704ZM3742.27 -3.69518L3647.54 41.7445L3452.87 41.7445L3541.58 -3.69519L3742.35 -3.69518L3742.27 -3.69518ZM3440.01 -66.3548L3549.56 -127.346L3767.74 -127.346L3649.98 -66.3548L3440.01 -66.3548ZM3454.83 -211.853L3595.62 -297.725L3838.71 -297.725L3686.2 -211.853L3455.64 -211.853L3454.83 -211.853ZM3346.99 -305.311L3501.46 -409.39L3760.09 -409.39L3591.31 -305.311L3346.91 -305.311L3346.99 -305.311ZM3235.99 -418.341L3407.05 -547.15L3686.77 -547.15L3497.88 -418.341L3236.8 -418.341L3235.99 -418.341ZM2999.49 -734.067L3216.54 -947.535L3554.36 -947.535L3307.28 -734.067L2999.49 -734.067ZM2671.6 -734.067L2855.36 -947.535L3194.73 -947.535L2980.69 -734.067L2671.6 -734.067ZM2343.79 -734.067L2494.34 -947.535L2835.1 -947.535L2654.1 -734.067L2343.79 -734.067ZM2016.06 -734.067L2133.33 -947.535L2475.38 -947.535L2327.51 -734.067L2016.06 -734.067ZM1688.49 -734.067L1772.56 -947.535L2115.59 -947.535L2000.76 -734.067L1688.49 -734.067ZM1361.01 -734.067L1411.87 -947.535L1755.71 -947.535L1674 -734.067L1361.01 -734.067ZM1033.68 -734.067L1051.34 -947.535L1395.68 -947.535L1347.09 -734.067L1033.68 -734.067ZM379.446 -734.067L330.861 -947.535L675.192 -947.535L692.852 -734.067L379.446 -734.067ZM52.5309 -734.067L-29.1779 -947.535L314.665 -947.535L365.529 -734.067L52.5309 -734.067ZM-274.303 -734.068L-389.134 -947.535L-46.1054 -947.535L37.9632 -734.067L-274.303 -734.068ZM-600.975 -734.068L-748.847 -947.535L-406.794 -947.535L-289.522 -734.068L-600.975 -734.068ZM-927.564 -734.068L-1108.56 -947.535L-767.809 -947.535L-617.251 -734.068L-927.564 -734.068ZM-1254.15 -734.068L-1468.19 -947.535L-1128.82 -947.535L-945.061 -734.068L-1254.15 -734.068ZM-1580.66 -734.068L-1827.74 -947.535L-1490 -947.535L-1272.95 -734.068L-1580.74 -734.068L-1580.66 -734.068ZM-1770.45 -418.342L-1959.34 -547.151L-1680.44 -547.151L-1509.37 -418.342L-1770.45 -418.342ZM-1864.77 -305.312L-2033.56 -409.39L-1774.92 -409.39L-1620.46 -305.312L-1864.85 -305.312L-1864.77 -305.312ZM-1958.85 -211.853L-2111.36 -297.726L-1869.08 -297.726L-1728.29 -211.853L-1958.85 -211.853ZM-1923.45 -66.3553L-2041.21 -127.346L-1823.02 -127.346L-1713.48 -66.3553L-1923.45 -66.3553ZM-2025.99 -8.55066L-2135.29 -60.9694L-1926.87 -60.9694L-1824.57 -8.55064L-2025.99 -8.55066ZM-2028.19 86.0457L-2117.14 46.3714L-1923.77 46.3714L-1840.03 86.0457L-2028.19 86.0457ZM-2049.92 160.236L-2124.22 129.21L-1942.41 129.21L-1872.18 160.236L-2049.92 160.236ZM-1907.9 223.427L-1853.86 245.729L-2019.97 245.729L-2076.85 223.427L-1907.82 223.427L-1907.9 223.427ZM-1845.97 248.991L-1797.14 269.17L-1960.23 269.17L-2011.67 248.991L-1845.97 248.991ZM-1789.49 272.356L-1745.22 290.638L-1905.54 290.638L-1952.18 272.356L-1789.49 272.356ZM-1855.09 313.32L-1815.86 328.492L-1970.89 328.492L-2011.99 313.32L-1855 313.32L-1855.09 313.32ZM-1808.45 331.374L-1772.56 345.332L-1925.48 345.332L-1963.16 331.374L-1808.45 331.374ZM-1882.27 363.614L-1850.2 375.373L-1998.97 375.373L-2032.5 363.614L-1882.27 363.614ZM-1842.88 378.028L-1813.34 388.875L-1960.4 388.875L-1991.32 378.028L-1842.88 378.028ZM-1688.25 378.028L-1660.34 388.875L-1807.72 388.875L-1837.02 378.028L-1688.33 378.028L-1688.25 378.028ZM-1533.62 378.028L-1507.42 388.875L-1655.05 388.875L-1682.64 378.028L-1533.62 378.028ZM-1379 378.028L-1354.5 388.875L-1502.37 388.875L-1528.33 378.028L-1379 378.028ZM-1224.37 378.028L-1201.58 388.876L-1349.7 388.875L-1373.95 378.028L-1224.37 378.028ZM-1069.74 378.028L-1048.58 388.876L-1197.02 388.876L-1219.65 378.028L-1069.74 378.028ZM-915.113 378.028L-895.662 388.876L-1044.35 388.876L-1065.26 378.028L-915.113 378.028ZM-760.485 378.028L-742.744 388.876L-891.674 388.876L-910.88 378.028L-760.485 378.028ZM-605.857 378.028L-589.825 388.876L-739 388.876L-756.579 378.028L-605.939 378.028L-605.857 378.028ZM-451.23 378.028L-436.825 388.876L-586.244 388.876L-602.114 378.028L-451.23 378.028ZM-296.602 378.028L-283.906 388.876L-433.57 388.876L-447.812 378.028L-296.684 378.028L-296.602 378.028ZM-141.975 378.028L-130.988 388.876L-280.814 388.876L-293.347 378.028L-141.975 378.028ZM12.5715 378.028L21.9309 388.876L-128.139 388.876L-138.964 378.028L12.6531 378.028L12.5715 378.028ZM167.118 378.028L174.768 388.876L24.5349 388.876L15.3384 378.028L167.118 378.028ZM321.664 378.028L327.605 388.876L177.209 388.876L169.722 378.028L321.664 378.028ZM476.21 378.028L480.442 388.876L329.884 388.876L324.024 378.028L476.129 378.028L476.21 378.028ZM630.757 378.028L633.361 388.876L482.721 388.876L478.571 378.028L630.757 378.028ZM1869.16 378.028L2020.53 378.028L2008 388.876L1858.17 388.876L1869.16 378.028ZM2023.79 378.028L2174.92 378.028L2160.67 388.876L2011.01 388.876L2023.71 378.028L2023.79 378.028ZM2178.42 378.028L2329.3 378.028L2313.43 388.876L2164.01 388.876L2178.42 378.028ZM2333.04 378.028L2483.68 378.028L2466.1 388.876L2316.93 388.876L2332.96 378.028L2333.04 378.028ZM2487.67 378.028L2638.07 378.028L2618.86 388.876L2469.93 388.876L2487.67 378.028ZM2642.3 378.028L2792.45 378.028L2771.53 388.876L2622.85 388.876L2642.3 378.028ZM2796.93 378.028L2946.75 378.028L2924.21 388.876L2775.77 388.876L2796.93 378.028ZM2951.55 378.028L3101.14 378.028L3076.88 388.876L2928.77 388.876L2951.55 378.028ZM3106.18 378.028L3255.52 378.028L3229.56 388.876L3081.69 388.876L3106.18 378.028ZM3260.81 378.028L3409.82 378.028L3382.23 388.876L3234.6 388.876L3260.81 378.028ZM3415.44 378.028L3564.12 378.028L3534.83 388.876L3387.44 388.876L3415.36 378.028L3415.44 378.028ZM3570.06 378.028L3718.51 378.028L3687.58 388.876L3540.52 388.876L3570.06 378.028ZM3872.81 378.028L3840.17 388.876L3693.36 388.876L3724.61 378.028L3873.13 378.028L3872.81 378.028ZM3767.58 360.884L3616.94 360.884L3651.85 348.14L3804.37 348.14L3767.91 360.884L3767.58 360.884ZM3851.89 331.375L3812.1 345.333L3659.5 345.333L3697.51 331.375L3852.14 331.375L3851.89 331.375ZM3903.57 313.32L3860.11 328.492L3705.4 328.492L3746.99 313.32L3903.9 313.32L3903.57 313.32ZM3747.24 310.362L3589.84 310.362L3632.73 293.673L3792.57 293.673L3747.56 310.362L3747.24 310.362ZM3850.02 272.356L3800.54 290.638L3640.62 290.638L3687.74 272.356L3850.27 272.356L3850.02 272.356ZM3643.31 220.013L3703.29 195.208L3876.23 195.208L3813.07 220.013L3643.63 220.013L3643.31 220.013ZM-1975.61 195.207L-1915.63 220.013L-2085.07 220.013L-2148.23 195.207L-1975.61 195.207ZM-1960.15 272.28L-1913.03 290.562L-2072.95 290.562L-2122.43 272.28L-1960.15 272.28ZM-1905.14 293.596L-1862.25 310.285L-2019.64 310.285L-2064.65 293.596L-1905.14 293.596ZM-2019.32 313.168L-1977.73 328.34L-2132.44 328.34L-2175.9 313.168L-2019.24 313.168L-2019.32 313.168ZM-1969.92 331.222L-1931.91 345.181L-2084.5 345.181L-2124.3 331.222L-1970 331.222L-1969.92 331.222ZM-1924.18 347.987L-1889.27 360.732L-2039.91 360.732L-2076.37 347.987L-1924.18 347.987ZM-1997.02 377.952L-1965.77 388.8L-2112.58 388.8L-2145.22 377.952L-1997.1 377.952L-1997.02 377.952ZM940.012 377.952L939.198 388.8L788.477 388.8L787.663 377.952L939.93 377.952L940.012 377.952ZM3858.81 268.412L3696.13 268.412L3748.13 248.233L3913.34 248.233L3858.81 268.412ZM3634.52 -734.75L3328.19 -734.75L3578.53 -948.218L3914.64 -948.218L3634.52 -734.75ZM-1850.28 -948.218L-1599.95 -734.75L-1906.28 -734.75L-2186.4 -948.218L-1850.28 -948.218ZM-2019.89 248.233L-1967.88 268.411L-2130.57 268.411L-2185.09 248.233L-2019.89 248.233ZM3881.19 374.614L3732.75 374.614L3766.69 362.856L3916.51 362.856L3881.11 374.614L3881.19 374.614ZM-2038.36 362.856L-2004.42 374.614L-2152.87 374.614L-2188.19 362.856L-2038.28 362.856L-2038.36 362.856Z"
        fill="url(#paint0_linear_33_306)" />
    <defs>
        <linearGradient id="paint0_linear_33_306" x1="864.001" y1="483" x2="864.001" y2="-218.929"
            gradientUnits="userSpaceOnUse">
            <stop offset="0.139281" stop-color="white" stop-opacity="0" />
            <stop offset="0.57715" stop-color="white" />
        </linearGradient>
    </defs>
</svg>