<svg width="1728" height="493" viewBox="0 0 1728 493" fill="none" xmlns="http://www.w3.org/2000/svg">
<path d="M222.87 332.513C272.779 307.64 293.075 247.017 268.202 197.108C243.329 147.199 182.706 126.903 132.797 151.776C82.8875 176.649 62.5916 237.272 87.4645 287.181C112.338 337.09 172.96 357.386 222.87 332.513Z" fill="#FCC496"/>
<path d="M1845.11 315.628C1857.14 251.745 1815.1 190.209 1751.22 178.184C1687.33 166.16 1625.8 208.199 1613.77 272.083C1601.75 335.966 1643.79 397.501 1707.67 409.526C1771.55 421.551 1833.09 379.511 1845.11 315.628Z" fill="#FCC496"/>
<path d="M-92.8973 196.199C-92.8973 275.303 -28.7622 339.397 50.3013 339.397C129.365 339.397 193.5 275.262 193.5 196.199C193.5 117.135 129.405 53 50.3013 53C-28.8028 53 -92.8973 117.095 -92.8973 196.199Z" fill="#FCC496"/>
<path d="M426.027 458.989C515.933 434.343 568.837 341.48 544.191 251.573C519.544 161.667 426.681 108.763 336.775 133.409C246.868 158.055 193.965 250.919 218.611 340.825C243.257 430.731 336.12 483.635 426.027 458.989Z" fill="#FCC496"/>
<path d="M699.99 385.13C717.033 311.83 671.429 238.592 598.129 221.548C524.829 204.504 451.591 250.109 434.547 323.409C417.503 396.709 463.108 469.947 536.408 486.991C609.708 504.035 682.946 458.43 699.99 385.13Z" fill="#FCC496"/>
<path d="M680.821 345.376C670.396 394.908 702.038 443.506 751.569 453.931C801.1 464.357 849.698 432.715 860.124 383.184C870.549 333.653 838.908 285.054 789.377 274.629C739.845 264.203 691.247 295.845 680.821 345.376Z" fill="#FCC496"/>
<path d="M864.14 331.137C853.714 380.668 885.356 429.266 934.887 439.692C984.418 450.117 1033.02 418.476 1043.44 368.944C1053.91 319.413 1022.23 270.815 972.695 260.389C923.164 249.964 874.565 281.605 864.14 331.137Z" fill="#FCC496"/>
<path d="M1024.25 320.062C1007.7 398.598 1057.92 475.674 1136.46 492.266C1215 508.817 1292.07 458.596 1308.66 380.06C1325.26 301.523 1274.99 224.448 1196.46 207.856C1117.92 191.305 1040.85 241.526 1024.25 320.062Z" fill="#FCC496"/>
<path d="M1258.44 382.981C1241.89 461.518 1292.11 538.593 1370.65 555.185C1449.19 571.736 1526.26 521.515 1542.85 442.979C1559.44 364.443 1509.18 287.367 1430.65 270.775C1352.11 254.224 1275.03 304.445 1258.44 382.981Z" fill="#FCC496"/>
<path d="M1441.44 312.841C1429.27 370.607 1466.18 427.278 1523.95 439.448C1581.71 451.618 1638.39 414.703 1650.56 356.937C1662.73 299.17 1625.81 242.499 1568.04 230.329C1510.28 218.16 1453.61 255.075 1441.44 312.841Z" fill="#FCC496"/>
<path d="M2060.03 464.883H31.7219V931.394H2060.03V464.883Z" fill="#FC8D31"/>
<path d="M200.722 571.295C289.261 542.117 337.383 446.687 308.204 358.148C279.025 269.609 183.596 221.488 95.0566 250.666C6.51732 279.845 -41.6039 375.274 -12.4251 463.814C16.7536 552.353 112.183 600.474 200.722 571.295Z" fill="#FC8D31"/>
<path d="M449.911 585.473C503.125 532.26 503.125 445.984 449.911 392.77C396.698 339.557 310.421 339.557 257.208 392.77C203.994 445.984 203.994 532.26 257.208 585.473C310.421 638.687 396.698 638.687 449.911 585.473Z" fill="#FC8D31"/>
<path d="M1662 363.387C1646.46 437.015 1693.56 509.304 1767.18 524.84C1840.81 540.377 1913.1 493.28 1928.64 419.652C1944.17 346.025 1897.08 273.736 1823.45 258.199C1749.82 242.662 1677.53 289.759 1662 363.428V363.387Z" fill="#FC8D31"/>
<path d="M1524.72 455.188C1511.49 517.823 1551.57 579.362 1614.25 592.546C1676.92 605.77 1738.42 565.691 1751.61 503.016C1764.83 440.382 1724.75 378.843 1662.08 365.659C1599.4 352.434 1537.9 392.514 1524.72 455.188Z" fill="#FC8D31"/>
<path d="M1359.9 445.98C1349.47 495.511 1381.12 544.11 1430.65 554.535C1480.18 564.961 1528.78 533.319 1539.2 483.788C1549.63 434.256 1517.99 385.658 1468.45 375.233C1418.92 364.807 1370.32 396.449 1359.9 445.98Z" fill="#FC8D31"/>
<path d="M477.16 480.218C466.735 529.749 498.376 578.347 547.908 588.773C597.439 599.198 646.037 567.557 656.463 518.025C666.888 468.494 635.247 419.896 585.715 409.47C536.184 399.045 487.586 430.686 477.16 480.218Z" fill="#FC8D31"/>
<path d="M630.479 405.98C620.053 455.511 651.695 504.11 701.226 514.535C750.757 524.961 799.356 493.319 809.781 443.788C820.207 394.256 788.565 345.658 739.034 335.233C689.502 324.807 640.904 356.449 630.479 405.98Z" fill="#FC8D31"/>
<path d="M1024.78 497.823C1008.23 576.359 1058.45 653.435 1136.99 670.026C1215.52 686.577 1292.6 636.356 1309.19 557.82C1325.74 479.284 1275.52 402.208 1196.99 385.617C1118.45 369.066 1041.37 419.287 1024.78 497.823Z" fill="#FC8D31"/>
<path d="M1207.78 427.684C1195.61 485.45 1232.52 542.122 1290.29 554.291C1348.05 566.461 1404.72 529.546 1416.89 471.78C1429.06 414.014 1392.15 357.343 1334.38 345.173C1276.62 333.003 1219.95 369.918 1207.78 427.684Z" fill="#FC8D31"/>
<path d="M1489.15 392.043C1483.11 420.683 1501.44 448.795 1530.04 454.839C1558.68 460.884 1586.8 442.548 1592.84 413.949C1598.88 385.309 1580.55 357.197 1551.95 351.152C1523.31 345.108 1495.2 363.444 1489.15 392.084V392.043Z" fill="#FC8D31"/>
<path d="M246.155 81.5323C246.155 97.1503 233.498 109.848 217.84 109.848C202.181 109.848 189.524 97.1908 189.524 81.5323C189.524 65.8737 202.181 53.217 217.84 53.217C233.498 53.217 246.155 65.8737 246.155 81.5323Z" fill="#FCC496"/>
<path d="M358.442 141.247C358.442 169.643 335.441 192.644 307.045 192.644C278.648 192.644 255.647 169.643 255.647 141.247C255.647 112.85 278.648 89.8491 307.045 89.8491C335.441 89.8491 358.442 112.85 358.442 141.247Z" fill="#FCC496"/>
<path d="M1452.69 224.843C1452.69 288.248 1401.29 339.686 1337.84 339.686C1274.4 339.686 1223 288.288 1223 224.843C1223 161.397 1274.4 110 1337.84 110C1401.29 110 1452.69 161.397 1452.69 224.843Z" fill="#FCC496"/>
<path d="M1003.5 303C1087.17 303 1155 235.171 1155 151.5C1155 67.8289 1087.17 0 1003.5 0C919.829 0 852 67.8289 852 151.5C852 235.171 919.829 303 1003.5 303Z" fill="#FCC496"/>
<path d="M912.982 255.198C912.982 311.098 867.669 356.41 811.769 356.41C755.869 356.41 710.556 311.098 710.556 255.198C710.556 199.297 755.869 153.985 811.769 153.985C867.669 153.985 912.982 199.297 912.982 255.198Z" fill="#FCC496"/>
<path d="M1143.92 258.402C1187.84 258.402 1223.43 222.805 1223.43 178.893C1223.43 134.981 1187.84 99.3828 1143.92 99.3828C1100.01 99.3828 1064.42 134.981 1064.42 178.893C1064.42 222.805 1100.01 258.402 1143.92 258.402Z" fill="#FCC496"/>
<path d="M678.834 319.535C720.998 319.535 755.179 285.354 755.179 243.189C755.179 201.025 720.998 166.844 678.834 166.844C636.669 166.844 602.488 201.025 602.488 243.189C602.488 285.354 636.669 319.535 678.834 319.535Z" fill="#FCC496"/>
<path d="M778.613 420.138C759.656 510.097 817.178 598.382 907.133 617.387C997.088 636.345 1085.37 578.82 1104.37 488.862C1123.38 398.903 1065.81 310.618 975.853 291.613C885.899 272.655 797.617 330.18 778.613 420.138Z" fill="#FC8D31"/>
</svg>
