<svg width="1728" height="1252" viewBox="0 0 1728 1252" fill="none" xmlns="http://www.w3.org/2000/svg">
<rect width="1728" height="1252" fill="#FC8E42"/>
<g style="mix-blend-mode:soft-light">
<rect x="41" y="403" width="582" height="494" rx="19" fill="#D9D9D9"/>
<rect x="41" y="403" width="582" height="494" rx="19" stroke="#FC8C30" stroke-width="10"/>
</g>
<path d="M618.067 391.069C617.999 391.108 617.94 391.152 617.887 391.2C617.778 391.276 617.679 391.378 617.608 391.481L617.368 391.944L616.869 392.86C616.219 394.071 615.52 395.28 614.798 396.448C614.076 397.615 613.306 398.78 612.53 399.914C611.737 401.038 610.895 402.159 610.012 403.227C609.148 404.306 608.211 405.342 607.253 406.335C606.294 407.329 605.295 408.27 604.242 409.178C603.203 410.067 602.106 410.892 600.999 411.655C599.875 412.408 598.723 413.089 597.527 413.686C595.153 414.892 592.675 415.729 590.192 416.201C589.576 416.322 588.955 416.413 588.316 416.492L587.852 416.539L587.61 416.558C587.61 416.558 587.512 416.553 587.195 416.608C586.726 416.736 586.396 416.922 586.088 417.149C585.785 417.407 585.468 417.684 585.201 418.298C585.068 418.605 585.001 419.036 585.096 419.456C585.191 419.875 585.432 420.191 585.638 420.373L586.085 420.648L586.157 420.692L586.372 420.824L587.212 421.23L588.893 422.043C593.333 424.247 597.831 426.404 602.516 428.287C607.188 430.189 612.06 431.799 617.168 432.914C618.46 433.181 619.747 433.417 621.047 433.634L622.03 433.794L622.262 433.826L622.446 433.856C622.611 433.874 622.79 433.873 622.955 433.891C623.603 433.873 624.179 433.7 624.652 433.491C625.138 433.262 625.553 432.99 625.999 432.597C626.213 432.396 626.454 432.155 626.681 431.822C626.909 431.49 627.185 431.049 627.327 430.358C627.349 430.177 627.389 430.007 627.406 429.796C627.41 429.604 627.396 429.401 627.365 429.187C627.333 428.973 627.288 428.778 627.212 428.592C627.136 428.407 627.059 428.221 626.956 428.074C626.54 427.456 626.061 427.19 625.712 427.031C625.556 426.962 625.386 426.913 625.198 426.853L625.064 426.826L624.975 426.771L624.895 426.777L624.546 426.73C623.335 426.568 622.12 426.376 620.918 426.164C619.715 425.952 618.509 425.709 617.316 425.447C609.563 423.752 601.973 421.213 594.338 418.583C595.595 418.04 596.822 417.422 598.011 416.734C601.246 414.864 604.177 412.472 606.794 409.832C609.394 407.181 611.68 404.281 613.752 401.25C614.782 399.744 615.753 398.174 616.675 396.602C617.597 395.03 618.483 393.436 619.302 391.829L619.248 391.833L619.306 391.748C619.364 391.589 619.404 391.419 619.35 391.275C619.296 391.131 619.153 391.043 619.014 390.985C618.724 390.89 618.371 390.923 618.067 391.069Z" fill="white"/>
<path d="M719.906 256.131C721.465 260.461 722.635 264.976 723.409 269.616C724.183 274.257 724.514 279.021 724.511 283.818C724.464 293.438 722.89 303.226 720.127 312.753C717.368 322.309 713.357 331.59 708.502 340.453C703.63 349.305 697.864 357.707 691.432 365.534C685 373.36 677.839 380.599 670.205 387.117C666.374 390.38 662.412 393.482 658.34 396.355C654.268 399.229 650.058 401.882 645.784 404.31C637.202 409.144 628.191 413.017 619.037 415.575C614.447 416.873 609.824 417.83 605.226 418.429C602.919 418.724 600.615 418.941 598.312 419.052C597.169 419.113 596.022 419.144 594.871 419.146C594.289 419.156 593.719 419.148 593.15 419.14L592.302 419.118L592.192 419.103C592.129 419.09 592.331 419.109 592.378 419.112C592.441 419.124 592.504 419.137 592.584 419.161C592.728 419.197 592.956 419.285 593.166 419.47C593.407 419.646 593.651 419.959 593.769 420.352C593.904 420.756 593.916 421.163 593.857 421.5C593.798 421.836 593.684 422.112 593.557 422.299C593.325 422.714 593.051 422.943 592.785 423.124C592.502 423.294 592.224 423.387 591.983 423.424C591.924 423.441 591.861 423.428 591.802 423.444C591.709 423.44 591.768 423.423 591.802 423.444L592.017 423.445L592.924 423.451L593.831 423.456C595.058 423.448 596.269 423.429 597.488 423.363C599.93 423.259 602.385 423.03 604.844 422.723C609.746 422.099 614.643 421.02 619.478 419.608C629.142 416.755 638.525 412.474 647.347 407.177C656.169 401.879 664.444 395.548 672.073 388.574C679.698 381.571 686.683 373.849 692.9 365.595C699.134 357.352 704.567 348.556 709.105 339.417C713.644 330.277 717.301 320.774 719.706 311.104C722.111 301.434 723.297 291.617 723.011 282.029C722.861 277.245 722.336 272.519 721.415 267.92C720.96 265.611 720.405 263.346 719.748 261.124C719.419 260.012 719.062 258.91 718.691 257.826L718.404 257.007C718.354 256.869 718.291 256.75 718.27 256.604C718.249 256.457 718.287 256.294 718.392 256.174C718.603 255.932 718.907 255.801 719.194 255.767C719.481 255.732 719.826 255.788 719.915 256.083L719.89 256.121L719.906 256.131ZM719.906 256.131C719.805 255.855 719.472 255.78 719.185 255.815C718.899 255.849 718.578 255.969 718.384 256.222C718.295 256.353 718.228 256.524 718.261 256.652C718.282 256.798 718.362 256.928 718.396 257.056L718.682 257.874C719.053 258.958 719.411 260.061 719.739 261.172C720.396 263.394 720.922 265.667 721.39 267.958C722.281 272.565 722.73 277.297 722.833 282.079C723.01 291.652 721.639 301.46 719.002 311.012C717.692 315.793 716.036 320.519 714.123 325.164C712.21 329.81 710.053 334.356 707.667 338.814C702.892 347.7 697.198 356.173 690.834 364.041C684.469 371.91 677.375 379.19 669.75 385.767C662.142 392.354 653.978 398.168 645.405 403.06C636.844 407.934 627.854 411.847 618.687 414.424C614.097 415.722 609.487 416.66 604.885 417.231C602.577 417.525 600.27 417.713 597.997 417.816C596.854 417.876 595.511 419.504 594.376 419.517L593.516 419.514L592.668 419.492L592.453 419.491L592.238 419.49C592.238 419.49 591.963 419.506 591.841 419.51C591.284 419.589 590.698 419.784 590.162 420.116C589.626 420.448 589.303 419.301 588.91 419.989C588.716 420.348 588.543 420.747 588.446 421.246C588.361 421.726 588.369 422.318 588.55 422.83C588.719 423.362 589.056 423.785 589.402 424.054C589.748 424.323 590.076 424.475 590.351 424.566C590.511 424.612 590.62 424.627 590.764 424.663C590.89 424.689 591.156 424.721 591.169 424.702L591.371 424.722L591.494 424.718L592.4 424.724C592.999 424.724 593.615 424.734 594.227 424.716C595.437 424.697 596.66 424.66 597.896 424.604C600.351 424.481 602.789 424.241 605.244 423.905C610.154 423.234 615.052 422.154 619.869 420.732C629.534 417.879 638.908 413.646 647.751 408.388C652.181 405.765 656.464 402.863 660.595 399.76C664.726 396.656 668.705 393.352 672.536 389.876C680.119 383.007 687.171 375.326 693.46 367.144C699.749 358.962 705.295 350.21 709.919 341.123C712.245 336.575 714.343 331.939 716.185 327.222C718.026 322.505 719.568 317.735 720.857 312.914C723.405 303.28 724.789 293.454 724.714 283.837C724.634 274.192 723.082 264.774 719.906 256.131Z" fill="white"/>
</svg>
