<svg xmlns="http://www.w3.org/2000/svg" width="230" height="154" viewBox="0 0 230 154" fill="none">
    <path
        d="M66.0284 90.9534C65.9621 90.973 65.9066 91.0001 65.8589 91.0328C65.7551 91.077 65.6672 91.149 65.6094 91.2291L65.4318 91.6061L65.0558 92.3454C64.5686 93.3259 64.0289 94.2923 63.4582 95.2142C62.8876 96.136 62.2644 97.0437 61.6312 97.9216C60.9771 98.7848 60.2704 99.6338 59.5119 100.424C58.7744 101.228 57.9534 101.974 57.1015 102.675C56.2497 103.377 55.3462 104.019 54.3801 104.617C53.4249 105.2 52.3971 105.71 51.3494 106.16C50.2809 106.595 49.1716 106.955 48.0007 107.227C45.6797 107.786 43.1866 107.972 40.6268 107.815C39.9921 107.78 39.3474 107.714 38.6819 107.634L38.1961 107.566L37.9428 107.525C37.9428 107.525 37.8375 107.497 37.5097 107.472C37.0329 107.479 36.7131 107.573 36.4242 107.712C36.1452 107.881 35.8552 108.065 35.6747 108.577C35.5845 108.833 35.5867 109.222 35.7578 109.639C35.9289 110.056 36.239 110.411 36.4884 110.631L37.0101 110.998L37.0936 111.057L37.344 111.233L38.3059 111.818L40.2296 112.987C45.32 116.132 50.4641 119.246 55.761 122.147C61.047 125.064 66.4967 127.754 72.1141 130.038C73.5318 130.601 74.9396 131.134 76.3584 131.652L77.4303 132.041L77.6827 132.127L77.8824 132.199C78.0612 132.256 78.2509 132.298 78.4298 132.355C79.1152 132.495 79.6983 132.471 80.1661 132.39C80.6448 132.293 81.04 132.137 81.4481 131.877C81.6417 131.739 81.8572 131.571 82.0428 131.314C82.2284 131.056 82.4477 130.709 82.4821 130.094C82.475 129.93 82.4888 129.78 82.4718 129.585C82.4439 129.406 82.3951 129.212 82.3255 129.003C82.2558 128.795 82.1753 128.601 82.0629 128.408C81.9506 128.215 81.8382 128.022 81.704 127.86C81.1573 127.179 80.6038 126.813 80.2064 126.579C80.0285 126.477 79.8398 126.39 79.6301 126.288L79.4831 126.23L79.3787 126.157L79.2943 126.143L78.9158 126.014C77.6014 125.569 76.2771 125.094 74.9637 124.605C73.6502 124.115 72.3269 123.595 71.0144 123.061C62.4888 119.593 53.9932 115.372 45.4352 111.055C46.6794 110.849 47.8798 110.565 49.0275 110.207C52.1518 109.232 54.8646 107.695 57.2027 105.849C59.52 103.988 61.4626 101.817 63.1548 99.4714C63.9954 98.306 64.7635 97.0667 65.4789 95.8133C66.1944 94.5598 66.8681 93.2771 67.4683 91.9654L67.412 91.9563L67.4593 91.8907C67.494 91.7554 67.5078 91.6054 67.4262 91.4569C67.3447 91.3083 67.1778 91.191 67.0208 91.1035C66.6959 90.9435 66.3263 90.8891 66.0284 90.9534Z"
        fill="#F98200" />
    <path
        d="M151.572 -11.1496C153.957 -6.70576 155.961 -2.18242 157.564 2.36337C159.168 6.90916 160.321 11.4641 161.126 15.9686C162.695 24.9929 162.669 33.8054 161.335 42.0847C160.01 50.3925 157.308 58.1398 153.639 65.2895C149.95 72.4253 145.235 78.9216 139.715 84.7166C134.195 90.5116 127.801 95.5781 120.783 99.8534C117.26 101.991 113.57 103.946 109.726 105.66C105.881 107.374 101.852 108.848 97.7173 110.094C89.4089 112.558 80.4819 114.016 71.1819 114.204C66.5216 114.313 61.7682 114.093 56.9818 113.544C54.5788 113.263 52.1673 112.91 49.7379 112.457C48.533 112.237 47.3188 111.989 46.0951 111.712C45.4781 111.581 44.8715 111.436 44.2648 111.29L43.3599 111.065L43.2408 111.024C43.1714 110.997 43.3899 111.064 43.4396 111.077C43.509 111.105 43.5784 111.132 43.6675 111.173C43.826 111.242 44.083 111.38 44.3381 111.604C44.6233 111.828 44.9357 112.181 45.1272 112.579C45.3385 112.991 45.4203 113.377 45.4139 113.678C45.4076 113.98 45.3327 114.211 45.2297 114.356C45.0527 114.69 44.7997 114.839 44.5476 114.944C44.2758 115.036 43.9955 115.056 43.7461 115.032C43.6861 115.033 43.6167 115.006 43.5567 115.007C43.5173 114.979 43.4573 114.981 43.5567 115.007L43.7855 115.06L44.7503 115.285L45.7152 115.509C47.0185 115.798 48.3022 116.074 49.5867 116.306C52.1652 116.799 54.7362 117.178 57.2986 117.485C62.4038 118.085 67.428 118.256 72.3292 118.099C82.1223 117.757 91.3753 116.006 99.8616 113.165C108.348 110.324 116.078 106.378 123.014 101.674C129.941 96.9412 136.066 91.3779 141.285 85.1297C146.525 78.8955 150.819 71.9484 154.106 64.462C157.392 56.9756 159.681 48.9353 160.61 40.4346C161.539 31.9338 161.147 23.0006 159.23 13.926C158.265 9.39593 156.912 4.83072 155.159 0.287967C154.287 -1.99069 153.315 -4.25296 152.243 -6.49886C151.707 -7.62181 151.141 -8.74415 150.565 -9.85193L150.123 -10.6897C150.046 -10.8317 149.958 -10.9591 149.911 -11.1017C149.864 -11.2442 149.877 -11.388 149.969 -11.476C150.153 -11.6519 150.454 -11.7011 150.753 -11.6641C151.052 -11.6271 151.429 -11.4912 151.573 -11.1927L151.552 -11.1636L151.572 -11.1496ZM151.572 -11.1496C151.418 -11.4335 151.051 -11.584 150.752 -11.621C150.453 -11.658 150.132 -11.6228 149.968 -11.4329C149.896 -11.331 149.853 -11.1866 149.91 -11.0586C149.957 -10.916 150.064 -10.7747 150.122 -10.6467L150.564 -9.80885C151.14 -8.70107 151.706 -7.57873 152.242 -6.45579C153.315 -4.20989 154.256 -1.94701 155.138 0.317087C156.862 4.86045 158.135 9.41292 159.05 13.9296C160.848 22.9636 161.041 31.8435 159.846 40.1774C159.258 44.3513 158.293 48.3893 157.041 52.2896C155.79 56.19 154.261 59.938 152.476 63.5478C148.896 70.7387 144.269 77.3194 138.828 83.1702C133.387 89.021 127.071 94.1433 120.073 98.4756C113.094 102.822 105.394 106.307 97.1042 108.829C88.8249 111.336 79.927 112.836 70.6167 113.039C65.9564 113.148 61.2133 112.913 56.4176 112.336C54.0145 112.054 51.5936 111.673 49.1942 111.219C47.9893 111 46.8357 112.204 45.6318 111.941L44.7166 111.73L43.8118 111.504L43.583 111.452L43.3542 111.399C43.3542 111.399 43.0654 111.347 42.936 111.321C42.3575 111.261 41.7669 111.302 41.2533 111.484C40.7396 111.667 40.2029 110.511 39.9014 111.063C39.7554 111.353 39.6384 111.685 39.619 112.13C39.61 112.561 39.7182 113.119 39.997 113.644C40.2654 114.184 40.6952 114.663 41.1079 114.999C41.5206 115.336 41.8958 115.558 42.2025 115.709C42.3806 115.792 42.4997 115.832 42.6582 115.901C42.797 115.956 43.0849 116.05 43.0952 116.036L43.3137 116.103L43.4431 116.129L44.4079 116.353C45.0446 116.498 45.701 116.657 46.3479 116.788C47.6316 117.063 48.9255 117.324 50.2298 117.57C52.8186 118.049 55.3698 118.414 57.9229 118.692C63.029 119.249 68.0532 119.42 72.9347 119.249C82.7278 118.908 91.9799 117.199 100.495 114.4C104.763 113.008 108.827 111.318 112.696 109.403C116.564 107.488 120.238 105.347 123.726 103.009C130.63 98.3912 136.834 92.8837 142.141 86.7198C147.449 80.5559 151.872 73.678 155.257 66.2614C156.965 62.5527 158.415 58.7058 159.579 54.7212C160.742 50.7365 161.579 46.6293 162.137 42.4129C163.225 33.9807 163.043 25.0863 161.344 16.0359C159.636 6.95708 156.402 -2.26311 151.572 -11.1496Z"
        fill="#F98200" />
</svg>