<svg xmlns="http://www.w3.org/2000/svg" width="236" height="143" viewBox="0 0 236 143" fill="none">
    <path
        d="M65.0677 50.0694C64.9993 50.1079 64.9401 50.1521 64.8875 50.2003C64.7779 50.2757 64.6791 50.3778 64.6083 50.4813L64.3679 50.9446L63.8692 51.8602C63.2192 53.0716 62.5199 54.2805 61.7983 55.4479C61.0767 56.6153 60.3059 57.7802 59.5307 58.9145C58.7375 60.0379 57.8952 61.1588 57.0126 62.227C56.1478 63.3064 55.2116 64.3416 54.2529 65.3353C53.2942 66.329 52.2952 67.2701 51.2425 68.1782C50.2032 69.0667 49.1058 69.8917 47.9993 70.6555C46.8748 71.4083 45.7235 72.0889 44.5273 72.6864C42.1529 73.8924 39.6751 74.7292 37.1921 75.2016C36.5758 75.3225 35.9551 75.4128 35.3164 75.492L34.8519 75.5396L34.6107 75.5579C34.6107 75.5579 34.5124 75.5529 34.1953 75.6079C33.7265 75.7361 33.3962 75.9218 33.0884 76.1491C32.7851 76.407 32.4684 76.6845 32.2015 77.2981C32.068 77.605 32.0017 78.0365 32.0963 78.4559C32.1909 78.8753 32.4327 79.1908 32.6385 79.373L33.0857 79.6482L33.1572 79.6923L33.3719 79.8244L34.2125 80.2305L35.8936 81.0428C40.3335 83.2473 44.8314 85.404 49.5165 87.287C54.1881 89.1895 59.0603 90.7987 64.1684 91.9139C65.4599 92.1809 66.7469 92.4172 68.0473 92.634L69.0303 92.7944L69.2627 92.8263L69.4459 92.8557C69.6112 92.8741 69.7899 92.8729 69.9552 92.8913C70.603 92.8731 71.1789 92.6997 71.6521 92.4908C72.1386 92.2623 72.5536 91.9898 72.9996 91.5974C73.2137 91.3958 73.4545 91.155 73.6817 90.8225C73.909 90.49 74.1851 90.0488 74.3269 89.358C74.3489 89.1771 74.3888 89.0072 74.4063 88.7957C74.4104 88.6037 74.3966 88.4007 74.365 88.1868C74.3333 87.9728 74.2883 87.7784 74.212 87.5926C74.1358 87.4067 74.0595 87.2208 73.9565 87.0741C73.5399 86.4566 73.0614 86.1899 72.7127 86.0309C72.5562 85.9623 72.3864 85.9134 72.1987 85.8534L72.0646 85.8265L71.9751 85.7714L71.8948 85.7775L71.5462 85.7297C70.3353 85.568 69.1199 85.3757 67.9178 85.1639C66.7157 84.952 65.5091 84.7095 64.3159 84.4476C56.5637 82.7522 48.9733 80.2133 41.3386 77.5833C42.595 77.0402 43.8223 76.4218 45.0108 75.7345C48.2462 73.8637 51.1769 71.4719 53.7945 68.8318C56.3942 66.1808 58.6807 63.2814 60.7526 60.25C61.7819 58.744 62.7529 57.1745 63.6749 55.6025C64.5968 54.0305 65.4829 52.4365 66.302 50.829L66.2484 50.8331L66.3064 50.7483C66.3641 50.5894 66.4041 50.4194 66.3502 50.2752C66.2963 50.1309 66.1532 50.0428 66.0146 49.9853C65.7241 49.8899 65.3712 49.9228 65.0677 50.0694Z"
        fill="white" />
    <path
        d="M166.906 -84.8687C168.465 -80.5388 169.635 -76.0242 170.409 -71.3836C171.183 -66.743 171.514 -61.9786 171.511 -57.182C171.464 -47.5617 169.89 -37.7736 167.127 -28.247C164.368 -18.6911 160.357 -9.40933 155.502 -0.546606C150.63 8.3056 144.864 16.7073 138.432 24.5338C132 32.3604 124.839 39.599 117.205 46.117C113.374 49.3801 109.412 52.4818 105.34 55.3553C101.268 58.2288 97.0576 60.8823 92.7837 63.3098C84.2021 68.1439 75.1908 72.0171 66.0367 74.5752C61.4469 75.873 56.8237 76.83 52.2259 77.4297C49.9185 77.7243 47.6155 77.9415 45.3124 78.0522C44.1694 78.1128 43.0221 78.1441 41.8706 78.1462C41.2885 78.1566 40.7191 78.1482 40.1497 78.1399L39.3019 78.118L39.1923 78.1029C39.129 78.0901 39.3315 78.1097 39.3778 78.1119C39.4411 78.1247 39.5044 78.1375 39.5845 78.1608C39.7279 78.1968 39.9556 78.2855 40.1664 78.4702C40.4067 78.6466 40.6512 78.9589 40.7691 79.3523C40.9039 79.7562 40.9164 80.1637 40.8571 80.5C40.7979 80.8363 40.6839 81.1118 40.5573 81.2994C40.3251 81.7145 40.0508 81.9434 39.785 82.1242C39.5023 82.2946 39.2239 82.3876 38.9834 82.4243C38.9244 82.4408 38.8611 82.4281 38.8021 82.4446C38.7683 82.4235 38.7093 82.44 38.8021 82.4446L39.0172 82.4454L39.924 82.4508L40.8309 82.4562C42.0583 82.4481 43.2688 82.4296 44.4878 82.363C46.93 82.2591 49.385 82.0299 51.8441 81.7233C56.7456 81.0996 61.6431 80.0203 66.4775 78.6085C76.1421 75.7555 85.5248 71.474 94.3471 66.1768C103.169 60.8796 111.444 54.5479 119.073 47.5743C126.698 40.5714 133.683 32.8493 139.9 24.5956C146.134 16.3524 151.567 7.55663 156.105 -1.58313C160.644 -10.7229 164.301 -20.2254 166.706 -29.8955C169.111 -39.5656 170.297 -49.3823 170.011 -58.9703C169.861 -63.7549 169.336 -68.4803 168.415 -73.0796C167.96 -75.3887 167.405 -77.6542 166.748 -79.8762C166.419 -80.9873 166.062 -82.09 165.691 -83.174L165.404 -83.9923C165.354 -84.1304 165.291 -84.2498 165.27 -84.3961C165.249 -84.5425 165.287 -84.7054 165.392 -84.8262C165.603 -85.0679 165.907 -85.1985 166.194 -85.2329C166.481 -85.2674 166.826 -85.2118 166.915 -84.9168L166.89 -84.8793L166.906 -84.8687ZM166.906 -84.8687C166.805 -85.145 166.472 -85.2194 166.185 -85.1849C165.899 -85.1504 165.578 -85.0304 165.384 -84.7782C165.295 -84.6468 165.228 -84.4757 165.261 -84.3481C165.282 -84.2017 165.362 -84.0718 165.396 -83.9442L165.682 -83.126C166.053 -82.042 166.411 -80.9392 166.739 -79.8282C167.396 -77.6062 167.922 -75.3324 168.39 -73.0421C169.281 -68.4345 169.73 -63.7031 169.833 -58.9208C170.01 -49.3478 168.639 -39.5401 166.002 -29.9879C164.692 -25.2066 163.036 -20.4808 161.123 -15.8354C159.21 -11.1901 157.053 -6.64381 154.667 -2.18617C149.892 6.69983 144.198 15.1728 137.834 23.0414C131.469 30.91 124.375 38.1907 116.75 44.7672C109.142 51.3543 100.978 57.168 92.4047 62.0607C83.8442 66.9346 74.8539 70.8476 65.6871 73.4244C61.0974 74.7222 56.4868 75.6604 51.8848 76.2308C49.5775 76.5254 47.2702 76.7134 44.9967 76.8159C43.8536 76.8765 42.5106 78.5047 41.376 78.5172L40.5155 78.5141L39.6677 78.4921L39.4526 78.4913L39.2375 78.4906C39.2375 78.4906 38.9633 78.5063 38.841 78.51C38.2842 78.5895 37.6978 78.7838 37.162 79.1162C36.6262 79.4487 36.3029 78.3013 35.9103 78.9896C35.7161 79.3484 35.543 79.7469 35.4457 80.2461C35.3611 80.7265 35.3693 81.318 35.5504 81.8307C35.7188 82.3622 36.056 82.7856 36.4018 83.0544C36.7475 83.3232 37.0764 83.4749 37.3505 83.5658C37.5108 83.6123 37.6205 83.6274 37.7638 83.6634C37.8904 83.689 38.1561 83.7213 38.1687 83.7025L38.3712 83.7221L38.4935 83.7184L39.4004 83.7238C39.9993 83.7239 40.6151 83.7345 41.2267 83.7158C42.4373 83.6973 43.6605 83.66 44.8963 83.6039C47.3512 83.4812 49.7893 83.2415 52.2443 82.9056C57.1542 82.2339 62.0517 81.1546 66.8693 79.7323C76.5339 76.8793 85.9081 72.6459 94.7514 67.3884C99.1815 64.765 103.464 61.863 107.595 58.7598C111.726 55.6567 115.705 52.3523 119.536 48.876C127.119 42.0067 134.171 34.3267 140.46 26.1443C146.749 17.9619 152.295 9.21042 156.919 0.123211C159.245 -4.42451 161.343 -9.06085 163.185 -13.7776C165.026 -18.4943 166.568 -23.2643 167.857 -28.0855C170.405 -37.7195 171.789 -47.5459 171.714 -57.1624C171.634 -66.8082 170.082 -76.2253 166.906 -84.8687Z"
        fill="white" />
</svg>