<svg xmlns="http://www.w3.org/2000/svg" width="24" height="25" viewBox="0 0 24 25" fill="none">
    <path
        d="M9.5 9.5H9.51M14.5 9.5H14.51M9.5 13.5C9.82588 13.8326 10.2148 14.0968 10.6441 14.2772C11.0734 14.4576 11.5344 14.5505 12 14.5505C12.4656 14.5505 12.9266 14.4576 13.3559 14.2772C13.7852 14.0968 14.1741 13.8326 14.5 13.5M18 4.5C18.7956 4.5 19.5587 4.81607 20.1213 5.37868C20.6839 5.94129 21 6.70435 21 7.5V15.5C21 16.2956 20.6839 17.0587 20.1213 17.6213C19.5587 18.1839 18.7956 18.5 18 18.5H13L8 21.5V18.5H6C5.20435 18.5 4.44129 18.1839 3.87868 17.6213C3.31607 17.0587 3 16.2956 3 15.5V7.5C3 6.70435 3.31607 5.94129 3.87868 5.37868C4.44129 4.81607 5.20435 4.5 6 4.5H18Z"
        stroke="white" stroke-width="1.5" stroke-linecap="round" stroke-linejoin="round" />
</svg>