<svg width="36" height="37" viewBox="0 0 36 37" fill="none" xmlns="http://www.w3.org/2000/svg">
<path fill-rule="evenodd" clip-rule="evenodd" d="M9 18.5C9 14.9049 9 13.1073 9.85669 11.8126C10.2392 11.2344 10.7344 10.7392 11.3126 10.3567C12.6073 9.5 14.4049 9.5 18 9.5C21.5951 9.5 23.3927 9.5 24.6874 10.3567C25.2656 10.7392 25.7608 11.2344 26.1433 11.8126C27 13.1073 27 14.9049 27 18.5C27 22.0951 27 23.8927 26.1433 25.1874C25.7608 25.7656 25.2656 26.2608 24.6874 26.6433C23.3927 27.5 21.5951 27.5 18 27.5C14.4049 27.5 12.6073 27.5 11.3126 26.6433C10.7344 26.2608 10.2392 25.7656 9.85669 25.1874C9 23.8927 9 22.0951 9 18.5ZM22.6595 18.4993C22.6595 21.0726 20.5734 23.1587 18 23.1587C15.4267 23.1587 13.3406 21.0726 13.3406 18.4993C13.3406 15.9259 15.4267 13.8398 18 13.8398C20.5734 13.8398 22.6595 15.9259 22.6595 18.4993ZM18 21.5823C19.7027 21.5823 21.0831 20.2019 21.0831 18.4993C21.0831 16.7966 19.7027 15.4162 18 15.4162C16.2974 15.4162 14.917 16.7966 14.917 18.4993C14.917 20.2019 16.2974 21.5823 18 21.5823ZM22.8437 14.7014C23.4483 14.7014 23.9385 14.2112 23.9385 13.6065C23.9385 13.0019 23.4483 12.5117 22.8437 12.5117C22.239 12.5117 21.7488 13.0019 21.7488 13.6065C21.7488 14.2112 22.239 14.7014 22.8437 14.7014Z" fill="white"/>
</svg>
