<svg width="36" height="37" viewBox="0 0 36 37" fill="none" xmlns="http://www.w3.org/2000/svg">
<path d="M9.00024 11.9201C9.00024 11.3428 9.20295 10.8666 9.60835 10.4915C10.0138 10.1163 10.5408 9.92871 11.1894 9.92871C11.8265 9.92871 12.3419 10.1134 12.7358 10.4828C13.1412 10.8638 13.3439 11.3602 13.3439 11.972C13.3439 12.5261 13.147 12.9879 12.7531 13.3573C12.3477 13.7382 11.8149 13.9287 11.1547 13.9287H11.1373C10.5002 13.9287 9.98481 13.7382 9.59098 13.3573C9.19715 12.9763 9.00024 12.4972 9.00024 11.9201ZM9.22611 27.0716V15.5045H13.0833V27.0716H9.22611ZM15.2203 27.0716H19.0775V20.6127C19.0775 20.2086 19.1238 19.8969 19.2165 19.6776C19.3786 19.2851 19.6248 18.9532 19.9549 18.682C20.285 18.4107 20.6991 18.275 21.1972 18.275C22.4945 18.275 23.1431 19.1466 23.1431 20.8897V27.0716H27.0002V20.4395C27.0002 18.731 26.5948 17.4352 25.784 16.5521C24.9732 15.669 23.9018 15.2274 22.5697 15.2274C21.0755 15.2274 19.9114 15.8681 19.0775 17.1495V17.1841H19.0601L19.0775 17.1495V15.5045H15.2203C15.2435 15.8739 15.2551 17.0225 15.2551 18.9504C15.2551 20.8782 15.2435 23.5853 15.2203 27.0716Z" fill="white"/>
</svg>
