<svg width="36" height="37" viewBox="0 0 36 37" fill="none" xmlns="http://www.w3.org/2000/svg">
<path d="M18.4383 25.4792L14.3761 25.4033C13.0608 25.3768 11.7423 25.4296 10.4528 25.1555C8.49128 24.746 8.35232 22.7381 8.20691 21.0539C8.00654 18.686 8.08411 16.2752 8.46222 13.9272C8.67567 12.6096 9.51571 11.8235 10.8148 11.7379C15.2001 11.4274 19.6147 11.4642 23.9903 11.6091C24.4524 11.6224 24.9177 11.6949 25.3734 11.7775C27.6227 12.1805 27.6775 14.4559 27.8233 16.3713C27.9688 18.3065 27.9074 20.2517 27.6294 22.1737C27.4065 23.7651 26.9798 25.0997 25.1795 25.2285C22.9237 25.397 20.7197 25.5326 18.4576 25.4894C18.4577 25.4792 18.4447 25.4792 18.4383 25.4792ZM16.0501 21.4502C17.75 20.4528 19.4175 19.472 21.1076 18.4813C19.4046 17.4839 17.7403 16.5031 16.0501 15.5124V21.4502Z" fill="white"/>
</svg>
